<?xml version="1.0" standalone="no"?>
<!DOCTYPE svg PUBLIC "-//W3C//DTD SVG 20010904//EN"
 "http://www.w3.org/TR/2001/REC-SVG-20010904/DTD/svg10.dtd">
<svg version="1.0" xmlns="http://www.w3.org/2000/svg"
 width="1024.000000pt" height="1024.000000pt" viewBox="0 0 1024.000000 1024.000000"
 preserveAspectRatio="xMidYMid meet">
<metadata>
Created by potrace 1.16, written by Peter Selinger 2001-2019
</metadata>
<g transform="translate(0.000000,1024.000000) scale(0.100000,-0.100000)"
fill="#000000" stroke="none">
<path d="M1582 9150 c2 -391 0 -710 -4 -710 -5 0 -8 -7 -8 -15 0 -12 -14 -15
-67 -16 -104 -1 -126 -17 -25 -18 75 -1 85 1 107 24 l25 24 0 711 c0 627 -2
710 -15 710 -14 0 -15 -82 -13 -710z"/>
<path d="M1890 9291 c0 -313 -3 -578 -7 -588 -6 -17 -5 -17 13 -1 18 16 19 35
16 587 -1 366 -6 571 -12 571 -6 0 -10 -203 -10 -569z"/>
<path d="M2018 9335 c-2 -289 0 -525 5 -525 4 0 7 236 7 525 0 289 -2 525 -5
525 -2 0 -6 -236 -7 -525z"/>
<path d="M2112 9373 c-1 -271 1 -493 6 -493 6 0 6 361 -1 810 -1 96 -4 -47 -5
-317z"/>
<path d="M2272 9428 c-1 -241 1 -438 6 -438 6 0 6 474 -1 760 -1 63 -4 -82 -5
-322z"/>
<path d="M2342 9453 c-1 -227 1 -413 6 -413 6 0 6 442 -1 715 -1 61 -4 -76 -5
-302z"/>
<path d="M2530 9505 c0 -197 2 -356 6 -353 6 7 5 700 -1 707 -3 2 -5 -157 -5
-354z"/>
<path d="M2744 9565 c0 -165 2 -234 3 -153 2 81 2 216 0 300 -1 84 -3 18 -3
-147z"/>
<path d="M3020 9651 c0 -115 -3 -216 -6 -225 -4 -11 -1 -16 10 -16 14 0 16 25
16 225 0 143 -4 225 -10 225 -6 0 -10 -76 -10 -209z"/>
<path d="M3651 9753 c0 -62 2 -113 7 -113 4 0 6 39 4 87 -4 138 -9 148 -11 26z"/>
<path d="M3810 9775 c0 -50 4 -85 10 -85 6 0 10 35 10 85 0 50 -4 85 -10 85
-6 0 -10 -35 -10 -85z"/>
<path d="M4001 9796 c0 -39 3 -66 7 -60 5 5 6 36 2 69 l-7 60 -2 -69z"/>
<path d="M4210 9820 c0 -30 4 -40 16 -40 11 0 14 5 10 16 -3 9 -6 27 -6 40 0
13 -4 24 -10 24 -5 0 -10 -18 -10 -40z"/>
<path d="M4556 9845 c-3 -9 0 -15 9 -15 9 0 12 6 9 15 -4 8 -7 15 -9 15 -2 0
-5 -7 -9 -15z"/>
<path d="M5626 9845 c-3 -9 0 -15 9 -15 8 0 15 7 15 15 0 8 -4 15 -9 15 -5 0
-11 -7 -15 -15z"/>
<path d="M6173 9800 c0 -36 2 -50 4 -32 2 17 2 47 0 65 -2 17 -4 3 -4 -33z"/>
<path d="M8198 9324 c-2 -295 0 -538 5 -541 4 -2 7 239 7 536 0 298 -2 541 -5
541 -2 0 -6 -241 -7 -536z"/>
<path d="M8520 9184 l0 -675 52 -47 c28 -26 73 -69 100 -97 l47 -50 641 -3
640 -4 0 776 0 776 -655 0 -655 0 0 -746 0 -746 -29 31 c-16 17 -34 31 -40 31
-6 0 -11 5 -11 11 0 6 -7 17 -15 25 -13 13 -15 105 -15 705 l0 689 -30 0 -30
0 0 -676z"/>
<path d="M3440 9579 c0 -5 5 -7 10 -4 6 3 10 8 10 11 0 2 -4 4 -10 4 -5 0 -10
-5 -10 -11z"/>
<path d="M4865 8782 c-44 -3 -55 -6 -40 -12 12 -5 -30 -9 -107 -9 -73 -1 -129
-5 -133 -11 -3 -5 -36 -10 -73 -10 -37 0 -74 -5 -82 -10 -12 -8 -10 -10 10
-11 14 0 51 -3 84 -5 42 -4 63 -1 75 9 11 10 54 16 139 21 68 3 131 10 140 14
26 13 369 5 552 -13 213 -21 357 -29 347 -18 -11 10 -137 23 -295 29 -67 3
-120 9 -118 13 11 17 -320 25 -499 13z"/>
<path d="M4321 8711 c-10 -6 -2 -11 27 -16 48 -8 93 2 71 16 -18 11 -80 11
-98 0z"/>
<path d="M5780 8710 c-10 -7 6 -10 55 -9 48 0 64 3 50 9 -27 12 -87 12 -105 0z"/>
<path d="M4215 8680 c3 -5 26 -10 51 -10 24 0 44 5 44 10 0 6 -23 10 -51 10
-31 0 -48 -4 -44 -10z"/>
<path d="M5915 8680 c28 -12 73 -12 80 0 4 6 -14 10 -47 9 -39 0 -48 -3 -33
-9z"/>
<path d="M4120 8660 c0 -5 18 -10 40 -10 22 0 40 5 40 10 0 6 -18 10 -40 10
-22 0 -40 -4 -40 -10z"/>
<path d="M6015 8660 c3 -5 22 -10 41 -10 21 0 33 4 29 10 -3 6 -22 10 -41 10
-21 0 -33 -4 -29 -10z"/>
<path d="M4035 8640 c-4 -6 10 -10 35 -10 25 0 39 4 35 10 -3 6 -19 10 -35 10
-16 0 -32 -4 -35 -10z"/>
<path d="M6100 8640 c-11 -7 -3 -10 30 -10 33 0 41 3 30 10 -8 5 -22 10 -30
10 -8 0 -22 -5 -30 -10z"/>
<path d="M3955 8610 c3 -5 19 -10 35 -10 16 0 32 5 35 10 4 6 -10 10 -35 10
-25 0 -39 -4 -35 -10z"/>
<path d="M6203 8608 c21 -7 32 -7 40 1 8 8 0 11 -28 10 -40 -1 -40 -1 -12 -11z"/>
<path d="M3880 8590 c0 -5 16 -10 35 -10 19 0 35 5 35 10 0 6 -16 10 -35 10
-19 0 -35 -4 -35 -10z"/>
<path d="M6260 8590 c0 -5 14 -10 30 -10 17 0 30 5 30 10 0 6 -13 10 -30 10
-16 0 -30 -4 -30 -10z"/>
<path d="M3815 8570 c-4 -6 8 -10 30 -10 22 0 34 4 30 10 -3 6 -17 10 -30 10
-13 0 -27 -4 -30 -10z"/>
<path d="M6325 8570 c-4 -6 8 -10 30 -10 22 0 34 4 30 10 -3 6 -17 10 -30 10
-13 0 -27 -4 -30 -10z"/>
<path d="M3756 8545 c-8 -8 -26 -15 -40 -15 -14 0 -26 -4 -26 -10 0 -5 14 -10
30 -10 17 0 30 5 30 10 0 6 11 10 24 10 30 0 42 15 20 24 -21 8 -20 8 -38 -9z"/>
<path d="M6420 8538 c19 -5 39 -14 45 -19 12 -12 55 -12 55 1 0 6 -13 10 -30
10 -16 0 -30 5 -30 10 0 6 -17 10 -37 9 l-38 -1 35 -10z"/>
<path d="M3630 8500 c0 -5 11 -10 25 -10 14 0 25 5 25 10 0 6 -11 10 -25 10
-14 0 -25 -4 -25 -10z"/>
<path d="M6530 8500 c0 -5 12 -10 26 -10 14 0 23 4 19 10 -3 6 -15 10 -26 10
-10 0 -19 -4 -19 -10z"/>
<path d="M6590 8480 c-11 -7 -6 -10 20 -10 26 0 31 3 20 10 -8 5 -17 10 -20
10 -3 0 -12 -5 -20 -10z"/>
<path d="M3585 8470 c28 -12 45 -12 45 0 0 6 -15 10 -32 9 -28 0 -30 -2 -13
-9z"/>
<path d="M3510 8451 c-17 -10 -55 -26 -85 -36 l-20 -7 20 -8 c29 -12 35 -12
35 5 0 9 9 15 25 15 14 0 25 5 25 10 0 6 14 10 30 10 17 0 30 5 30 10 0 12
-39 12 -60 1z"/>
<path d="M6645 8450 c3 -5 15 -10 26 -10 10 0 19 5 19 10 0 6 -12 10 -26 10
-14 0 -23 -4 -19 -10z"/>
<path d="M6695 8430 c-4 -6 7 -10 25 -10 18 0 29 4 25 10 -3 6 -15 10 -25 10
-10 0 -22 -4 -25 -10z"/>
<path d="M6761 8410 c-9 -5 -8 -9 5 -14 9 -4 21 -3 26 2 12 12 -15 23 -31 12z"/>
<path d="M3365 8380 c-3 -5 -15 -10 -26 -10 -10 0 -19 -4 -19 -9 0 -5 -10 -11
-22 -15 -19 -5 -21 -8 -8 -16 11 -7 18 -5 26 5 6 8 21 15 33 15 11 0 21 5 21
10 0 6 9 10 20 10 11 0 20 5 20 10 0 6 -9 10 -19 10 -11 0 -23 -4 -26 -10z"/>
<path d="M6805 8380 c3 -5 15 -10 26 -10 10 0 19 -4 19 -10 0 -5 11 -10 24
-10 13 0 26 -5 28 -11 2 -6 13 -10 23 -7 17 3 14 7 -14 21 -19 9 -40 17 -48
17 -7 0 -13 5 -13 10 0 6 -12 10 -26 10 -14 0 -23 -4 -19 -10z"/>
<path d="M3235 8310 c3 -5 13 -10 21 -10 8 0 14 5 14 10 0 6 -9 10 -21 10 -11
0 -17 -4 -14 -10z"/>
<path d="M6940 8310 c0 -5 9 -10 20 -10 11 0 20 -4 20 -10 0 -5 9 -10 20 -10
11 0 20 5 20 10 0 6 -9 10 -20 10 -11 0 -20 5 -20 10 0 6 -9 10 -20 10 -11 0
-20 -4 -20 -10z"/>
<path d="M3190 8290 c0 -5 9 -10 20 -10 11 0 20 5 20 10 0 6 -9 10 -20 10 -11
0 -20 -4 -20 -10z"/>
<path d="M3156 8272 c-3 -6 3 -12 15 -15 12 -3 19 -1 16 6 -5 15 -24 20 -31 9z"/>
<path d="M7025 8270 c-4 -6 5 -10 20 -10 15 0 24 4 20 10 -3 6 -12 10 -20 10
-8 0 -17 -4 -20 -10z"/>
<path d="M3110 8240 c0 -5 -9 -10 -20 -10 -11 0 -20 -4 -20 -10 0 -5 9 -10 20
-10 11 0 20 5 20 10 0 6 9 10 20 10 11 0 20 5 20 10 0 6 -9 10 -20 10 -11 0
-20 -4 -20 -10z"/>
<path d="M7070 8240 c0 -5 6 -10 14 -10 8 0 18 5 21 10 3 6 -3 10 -14 10 -12
0 -21 -4 -21 -10z"/>
<path d="M7110 8220 c0 -5 9 -10 20 -10 11 0 20 -4 20 -10 0 -5 7 -10 15 -10
8 0 15 -4 15 -10 0 -5 16 -17 35 -26 19 -9 35 -20 35 -25 0 -5 9 -9 20 -9 30
0 24 13 -12 30 -18 7 -42 22 -53 32 -21 20 -72 48 -87 48 -4 0 -8 -4 -8 -10z"/>
<path d="M3035 8200 c-3 -5 3 -10 14 -10 12 0 21 -5 21 -12 0 -6 3 -8 6 -5 8
7 -14 37 -27 37 -4 0 -11 -4 -14 -10z"/>
<path d="M1365 8190 c-3 -5 -1 -10 4 -10 6 0 11 5 11 10 0 6 -2 10 -4 10 -3 0
-8 -4 -11 -10z"/>
<path d="M3004 8176 c-3 -9 -15 -16 -25 -16 -10 0 -19 -4 -19 -10 0 -5 9 -10
20 -10 11 0 20 5 20 10 0 6 7 10 15 10 17 0 20 16 5 25 -6 3 -13 -1 -16 -9z"/>
<path d="M1338 8163 c7 -3 16 -2 19 1 4 3 -2 6 -13 5 -11 0 -14 -3 -6 -6z"/>
<path d="M8870 8140 c0 -12 8 -12 35 0 18 8 17 9 -7 9 -16 1 -28 -3 -28 -9z"/>
<path d="M2908 8115 c-15 -14 -30 -25 -33 -25 -3 0 -24 -12 -46 -27 -29 -19
-37 -29 -29 -37 8 -8 15 -6 24 7 7 9 18 17 25 17 6 0 11 5 11 11 0 6 9 9 19 6
14 -3 18 -1 14 11 -5 12 -1 14 20 10 23 -4 25 -3 16 13 -8 16 -6 19 11 19 12
0 18 5 15 10 -9 15 -18 12 -47 -15z"/>
<path d="M7302 8111 c2 -7 7 -12 11 -12 12 1 9 15 -3 20 -7 2 -11 -2 -8 -8z"/>
<path d="M8990 8075 c0 -27 2 -46 4 -44 8 8 10 78 3 85 -4 4 -7 -14 -7 -41z"/>
<path d="M7330 8080 c0 -5 7 -10 15 -10 8 0 15 5 15 10 0 6 -7 10 -15 10 -8 0
-15 -4 -15 -10z"/>
<path d="M7365 8060 c-3 -5 1 -10 9 -10 9 0 16 5 16 10 0 6 -4 10 -9 10 -6 0
-13 -4 -16 -10z"/>
<path d="M1240 8050 c0 -5 5 -10 10 -10 6 0 10 5 10 10 0 6 -4 10 -10 10 -5 0
-10 -4 -10 -10z"/>
<path d="M7395 8040 c-8 -13 15 -24 27 -12 6 6 4 11 -6 15 -8 3 -18 2 -21 -3z"/>
<path d="M2760 8010 c0 -5 -7 -10 -15 -10 -8 0 -15 -4 -15 -10 0 -5 7 -10 15
-10 8 0 15 5 15 11 0 6 9 9 19 6 14 -3 18 -1 14 9 -6 16 -33 19 -33 4z"/>
<path d="M7448 8000 c12 -11 24 -20 27 -20 10 0 35 -28 35 -39 0 -6 7 -11 15
-11 8 0 15 -4 15 -10 0 -5 7 -10 16 -10 21 0 47 -28 41 -44 -4 -10 0 -12 14
-9 10 3 19 0 19 -6 0 -6 7 -11 16 -11 11 0 0 16 -29 45 -26 25 -51 45 -57 45
-5 0 -10 5 -10 10 0 6 -6 10 -12 10 -7 0 -30 16 -50 35 -20 19 -42 35 -49 35
-7 0 -3 -9 9 -20z"/>
<path d="M8987 8014 c-13 -14 3 -20 39 -16 25 3 32 7 23 13 -16 10 -53 12 -62
3z"/>
<path d="M9068 7948 c-5 -48 8 -78 34 -78 13 0 18 -8 18 -29 0 -20 9 -37 29
-54 17 -14 28 -27 25 -30 -9 -9 19 -46 39 -51 10 -2 16 -9 13 -15 -8 -13 15
-51 30 -51 6 0 14 -13 17 -29 3 -16 13 -36 22 -44 8 -9 15 -21 15 -27 0 -6 7
-13 15 -16 8 -4 15 -14 15 -23 0 -9 9 -27 20 -41 11 -14 20 -31 20 -37 0 -7 7
-13 16 -13 11 0 15 -6 11 -20 -3 -11 -1 -20 4 -20 5 0 9 9 9 20 0 20 7 20 290
20 l290 0 0 290 0 290 -464 0 -464 0 -4 -42z"/>
<path d="M2684 7959 c-10 -11 -31 -28 -46 -37 -31 -18 -36 -32 -13 -32 8 0 15
5 15 10 0 6 4 10 10 10 15 0 50 33 44 42 -3 4 4 8 16 8 12 0 18 5 15 10 -9 15
-20 12 -41 -11z"/>
<path d="M2574 7867 c-10 -11 -104 -95 -151 -135 -13 -11 -23 -22 -23 -26 0
-14 18 -4 53 29 20 19 40 35 43 35 10 0 34 28 34 39 0 6 7 11 16 11 8 0 12 5
9 10 -3 6 -1 10 5 10 6 0 20 9 32 20 15 14 17 20 7 20 -8 -1 -19 -6 -25 -13z"/>
<path d="M240 7720 l0 -50 360 -1 c198 -1 366 -2 373 -3 8 -1 13 17 15 52 l3
52 -375 0 -376 0 0 -50z"/>
<path d="M7740 7760 c0 -5 5 -10 10 -10 6 0 10 5 10 10 0 6 -4 10 -10 10 -5 0
-10 -4 -10 -10z"/>
<path d="M7766 7741 c-4 -5 -2 -12 3 -15 5 -4 12 -2 15 3 4 5 2 12 -3 15 -5 4
-12 2 -15 -3z"/>
<path d="M7790 7715 c0 -10 49 -55 60 -55 5 0 10 -5 10 -10 0 -6 11 -22 25
-35 13 -14 29 -25 35 -25 5 0 10 -5 10 -11 0 -15 30 -43 37 -35 4 3 -31 44
-78 91 -76 77 -99 95 -99 80z"/>
<path d="M2375 7690 c-3 -5 1 -10 10 -10 9 0 13 5 10 10 -3 6 -8 10 -10 10 -2
0 -7 -4 -10 -10z"/>
<path d="M2341 7654 c-18 -21 -6 -30 14 -11 8 9 15 18 15 21 0 11 -15 5 -29
-10z"/>
<path d="M2277 7590 c-9 -11 -17 -23 -17 -26 0 -4 -16 -20 -35 -37 -19 -16
-35 -33 -35 -38 0 -4 -16 -24 -37 -44 -20 -19 -33 -38 -30 -41 7 -8 37 21 37
35 0 6 5 11 10 11 12 0 60 45 60 56 0 4 11 17 25 30 14 13 25 27 25 33 0 5 5
11 12 13 6 2 9 10 7 16 -3 8 -10 6 -22 -8z"/>
<path d="M7975 7530 c-3 -5 -1 -10 4 -10 6 0 11 5 11 10 0 6 -2 10 -4 10 -3 0
-8 -4 -11 -10z"/>
<path d="M875 7520 c-3 -5 -1 -10 4 -10 6 0 11 5 11 10 0 6 -2 10 -4 10 -3 0
-8 -4 -11 -10z"/>
<path d="M8020 7474 c0 -8 5 -12 10 -9 6 4 8 11 5 16 -9 14 -15 11 -15 -7z"/>
<path d="M8040 7452 c0 -7 16 -28 35 -46 19 -19 35 -39 35 -45 0 -6 5 -11 10
-11 6 0 10 4 10 8 0 14 -89 108 -90 94z"/>
<path d="M2100 7374 c0 -8 5 -12 10 -9 6 3 10 10 10 16 0 5 -4 9 -10 9 -5 0
-10 -7 -10 -16z"/>
<path d="M2067 7339 c-14 -15 -16 -24 -8 -32 8 -8 11 -6 11 5 0 9 5 18 12 20
6 2 9 10 7 16 -3 8 -10 5 -22 -9z"/>
<path d="M8140 7333 c0 -13 4 -23 8 -23 5 0 15 -11 22 -25 7 -14 17 -25 22
-25 13 0 9 15 -10 36 -10 10 -24 28 -30 39 -11 19 -11 19 -12 -2z"/>
<path d="M2030 7290 c0 -5 5 -10 11 -10 5 0 7 5 4 10 -3 6 -8 10 -11 10 -2 0
-4 -4 -4 -10z"/>
<path d="M1988 7238 c-15 -18 -28 -36 -28 -40 0 -4 -11 -19 -25 -34 -26 -28
-32 -49 -15 -59 6 -3 10 3 10 14 0 12 5 21 10 21 6 0 10 6 10 14 0 8 7 16 15
20 8 3 15 12 15 21 0 8 5 15 10 15 6 0 10 6 10 14 0 8 5 16 12 18 6 2 9 10 7
16 -3 8 -15 0 -31 -20z"/>
<path d="M8211 7234 c0 -11 3 -14 6 -6 3 7 2 16 -1 19 -3 4 -6 -2 -5 -13z"/>
<path d="M8230 7205 c0 -8 5 -15 10 -15 6 0 10 -7 10 -15 0 -8 5 -15 10 -15
14 0 12 22 -4 43 -16 21 -26 22 -26 2z"/>
<path d="M9511 7207 c-14 -18 8 -69 27 -62 8 3 115 5 238 5 l224 0 0 35 0 35
-239 0 c-187 0 -241 -3 -250 -13z"/>
<path d="M6839 7176 c-2 -3 -82 -6 -177 -8 -112 -1 -171 -6 -169 -13 2 -6 107
-11 296 -13 209 -2 292 1 289 9 -2 6 -39 12 -90 14 -48 2 -99 6 -115 9 -16 4
-31 5 -34 2z"/>
<path d="M3133 7153 c-15 -8 -39 -12 -53 -9 -14 3 -19 3 -12 0 6 -3 12 -12 12
-20 0 -19 35 -18 54 1 12 13 59 15 297 15 221 0 280 3 271 12 -19 19 -532 20
-569 1z"/>
<path d="M8277 7153 c-3 -5 -2 -15 2 -22 5 -7 11 -9 14 -4 3 5 2 15 -2 22 -5
7 -11 9 -14 4z"/>
<path d="M6440 7131 c0 -6 5 -13 11 -16 15 -10 61 4 54 15 -8 13 -65 13 -65 1z"/>
<path d="M3723 7123 c9 -2 25 -2 35 0 9 3 1 5 -18 5 -19 0 -27 -2 -17 -5z"/>
<path d="M7103 7123 c9 -2 23 -2 30 0 6 3 -1 5 -18 5 -16 0 -22 -2 -12 -5z"/>
<path d="M8300 7104 c0 -8 5 -12 10 -9 6 3 10 10 10 16 0 5 -4 9 -10 9 -5 0
-10 -7 -10 -16z"/>
<path d="M1885 7090 c-3 -11 -10 -20 -14 -20 -4 0 -13 -16 -21 -35 -8 -19 -17
-35 -22 -35 -4 0 -8 -9 -8 -19 0 -10 -6 -21 -12 -24 -14 -5 -58 -82 -58 -99 0
-6 -8 -17 -17 -24 -15 -10 -16 -15 -5 -26 10 -10 14 -9 18 10 4 12 10 22 15
22 5 0 9 9 9 20 0 11 5 20 10 20 6 0 10 11 10 25 0 16 6 25 15 25 8 0 15 7 15
15 0 8 5 15 10 15 6 0 10 9 10 20 0 11 5 20 10 20 6 0 10 5 10 11 0 6 6 17 13
24 31 35 37 45 37 60 0 22 -18 19 -25 -5z"/>
<path d="M3040 7100 c0 -5 7 -10 15 -10 8 0 15 5 15 10 0 6 -7 10 -15 10 -8 0
-15 -4 -15 -10z"/>
<path d="M3785 7100 c3 -5 13 -10 21 -10 8 0 14 5 14 10 0 6 -9 10 -21 10 -11
0 -17 -4 -14 -10z"/>
<path d="M6400 7100 c0 -5 6 -10 14 -10 8 0 18 5 21 10 3 6 -3 10 -14 10 -12
0 -21 -4 -21 -10z"/>
<path d="M7150 7100 c0 -5 9 -10 20 -10 11 0 20 5 20 10 0 6 -9 10 -20 10 -11
0 -20 -4 -20 -10z"/>
<path d="M6375 7080 c-3 -5 1 -10 10 -10 9 0 13 5 10 10 -3 6 -8 10 -10 10 -2
0 -7 -4 -10 -10z"/>
<path d="M8320 7070 c0 -11 5 -20 10 -20 6 0 10 -7 10 -15 0 -16 16 -20 24 -6
3 5 -1 14 -9 21 -8 7 -15 19 -15 26 0 8 -4 14 -10 14 -5 0 -10 -9 -10 -20z"/>
<path d="M3001 7064 c-7 -8 -11 -17 -9 -20 3 -2 13 5 23 16 10 11 14 20 9 20
-5 -1 -15 -8 -23 -16z"/>
<path d="M7198 7073 c7 -3 16 -2 19 1 4 3 -2 6 -13 5 -11 0 -14 -3 -6 -6z"/>
<path d="M9571 7054 c0 -11 3 -14 6 -6 3 7 2 16 -1 19 -3 4 -6 -2 -5 -13z"/>
<path d="M6305 7023 c-23 -23 -40 -33 -43 -25 -8 25 -21 11 -15 -18 3 -19 1
-30 -6 -30 -6 0 -11 -7 -11 -15 0 -18 -17 -20 -23 -2 -2 7 -8 8 -13 3 -5 -5
-4 -11 4 -13 14 -5 16 -43 2 -43 -5 0 -10 -7 -10 -15 0 -8 -7 -15 -15 -15 -8
0 -15 -5 -15 -10 0 -6 -12 -29 -27 -51 -19 -30 -29 -37 -37 -28 -8 8 -8 13 2
16 6 3 12 12 12 20 0 22 -25 0 -44 -38 -11 -23 -12 -34 -3 -54 7 -14 14 -25
17 -25 3 0 19 23 35 50 16 28 33 50 37 50 4 0 8 7 8 15 0 8 5 15 10 15 6 0 10
6 10 13 0 7 11 24 25 39 14 15 25 30 25 34 0 12 71 97 109 132 23 21 30 32 20
32 -9 0 -33 -17 -54 -37z m-215 -293 c0 -5 -4 -10 -10 -10 -5 0 -10 5 -10 10
0 6 5 10 10 10 6 0 10 -4 10 -10z"/>
<path d="M7225 7050 c3 -5 8 -10 11 -10 2 0 4 5 4 10 0 6 -5 10 -11 10 -5 0
-7 -4 -4 -10z"/>
<path d="M2960 7026 c0 -8 -5 -16 -11 -18 -6 -2 -9 -13 -6 -23 5 -19 5 -19 12
3 4 12 11 22 16 22 5 0 9 7 9 15 0 8 -4 15 -10 15 -5 0 -10 -6 -10 -14z"/>
<path d="M7251 7024 c0 -11 3 -14 6 -6 3 7 2 16 -1 19 -3 4 -6 -2 -5 -13z"/>
<path d="M9590 7016 c0 -8 5 -18 10 -21 6 -3 10 -15 10 -26 0 -18 9 -19 195
-19 188 0 195 1 195 20 0 19 -7 20 -195 20 -163 0 -195 2 -195 14 0 8 -4 18
-10 21 -5 3 -10 -1 -10 -9z"/>
<path d="M8370 7001 c0 -12 5 -21 10 -21 6 0 10 -9 10 -20 0 -11 5 -20 10 -20
6 0 10 -7 10 -15 0 -8 7 -15 16 -15 10 0 14 -6 10 -15 -3 -8 1 -21 9 -29 8 -8
15 -22 15 -30 0 -9 4 -16 9 -16 5 0 12 -10 16 -22 7 -22 7 -22 12 -3 3 10 0
21 -6 23 -6 2 -11 12 -11 23 0 10 -4 19 -8 19 -4 0 -14 16 -21 36 -7 19 -19
38 -27 41 -8 3 -14 14 -14 24 0 10 -4 19 -10 19 -5 0 -10 6 -10 14 0 8 -4 18
-10 21 -5 3 -10 -3 -10 -14z"/>
<path d="M7270 6995 c0 -8 5 -15 10 -15 6 0 10 7 10 15 0 8 -4 15 -10 15 -5 0
-10 -7 -10 -15z"/>
<path d="M595 6991 c-3 -5 -1 -12 5 -16 5 -3 10 1 10 9 0 18 -6 21 -15 7z"/>
<path d="M3930 6979 c0 -5 5 -7 10 -4 6 3 10 8 10 11 0 2 -4 4 -10 4 -5 0 -10
-5 -10 -11z"/>
<path d="M2919 6963 c-6 -35 -4 -185 3 -195 4 -7 8 35 8 95 0 59 -2 107 -5
107 -3 0 -6 -3 -6 -7z"/>
<path d="M3950 6960 c0 -5 5 -10 10 -10 6 0 10 5 10 10 0 6 -4 10 -10 10 -5 0
-10 -4 -10 -10z"/>
<path d="M7295 6958 c-4 -10 -4 -26 0 -35 8 -17 8 -17 12 0 3 9 3 25 0 35 -4
16 -4 16 -12 0z"/>
<path d="M3975 6930 c3 -5 8 -10 11 -10 2 0 4 5 4 10 0 6 -5 10 -11 10 -5 0
-7 -4 -4 -10z"/>
<path d="M4000 6900 c0 -19 3 -21 12 -12 9 9 9 15 0 24 -9 9 -12 7 -12 -12z"/>
<path d="M6160 6891 c-16 -31 -12 -36 10 -11 23 26 24 30 10 30 -5 0 -14 -9
-20 -19z"/>
<path d="M7319 6870 c-1 -19 -1 -45 0 -56 1 -12 -5 -24 -14 -28 -8 -3 -15 -17
-15 -31 0 -14 -4 -25 -10 -25 -5 0 -10 -7 -10 -16 0 -8 -7 -22 -15 -31 -8 -8
-12 -19 -9 -25 9 -14 43 30 44 55 0 9 5 17 10 17 6 0 10 11 10 24 0 13 5 26
11 28 15 5 23 82 10 104 -9 17 -11 14 -12 -16z"/>
<path d="M4020 6865 c0 -8 4 -15 8 -15 5 0 14 -10 20 -22 l11 -23 0 23 c1 12
-3 22 -9 22 -5 0 -10 7 -10 15 0 8 -4 15 -10 15 -5 0 -10 -7 -10 -15z"/>
<path d="M9660 6850 c0 -6 4 -18 9 -28 5 -9 12 -24 14 -32 4 -13 29 -15 161
-12 l156 3 0 24 0 25 -160 0 c-136 0 -160 2 -160 15 0 8 -4 15 -10 15 -5 0
-10 -5 -10 -10z"/>
<path d="M4070 6801 c0 -8 16 -36 35 -62 19 -27 35 -54 35 -59 0 -6 5 -10 10
-10 6 0 10 -7 10 -15 0 -8 4 -15 9 -15 5 0 12 -10 16 -22 7 -22 7 -22 12 -3 3
10 0 21 -6 23 -6 2 -11 10 -11 18 0 8 -4 14 -10 14 -5 0 -10 7 -10 15 0 9 -7
18 -15 21 -8 4 -15 12 -15 20 0 8 -4 14 -10 14 -5 0 -10 7 -10 15 0 9 -9 25
-20 37 -12 14 -20 17 -20 9z"/>
<path d="M1708 6794 c-5 -4 -8 -16 -8 -26 0 -10 -4 -18 -10 -18 -5 0 -10 -9
-10 -20 0 -11 5 -20 10 -20 6 0 10 9 10 19 0 11 5 21 11 23 6 2 9 14 7 27 -1
12 -6 19 -10 15z"/>
<path d="M8506 6771 c-4 -6 -3 -19 3 -28 9 -17 10 -17 17 0 8 21 -10 45 -20
28z"/>
<path d="M2940 6740 c0 -19 3 -21 12 -12 9 9 9 15 0 24 -9 9 -12 7 -12 -12z"/>
<path d="M9708 6744 c-4 -3 -5 -11 -2 -17 5 -15 294 -11 294 4 0 5 -54 9 -129
9 -71 0 -136 2 -143 5 -8 3 -17 3 -20 -1z"/>
<path d="M8530 6710 c0 -11 5 -20 10 -20 6 0 10 -11 10 -25 0 -14 5 -25 10
-25 6 0 10 -11 10 -25 0 -28 17 -34 27 -9 4 10 -1 22 -10 29 -10 7 -17 22 -17
34 0 11 -4 21 -10 21 -5 0 -10 9 -10 20 0 11 -4 20 -10 20 -5 0 -10 -9 -10
-20z"/>
<path d="M2960 6706 c0 -8 5 -18 10 -21 6 -3 10 3 10 14 0 12 -4 21 -10 21 -5
0 -10 -6 -10 -14z"/>
<path d="M1662 6680 c0 -14 2 -19 5 -12 2 6 2 18 0 25 -3 6 -5 1 -5 -13z"/>
<path d="M2990 6664 c0 -8 5 -12 10 -9 6 4 8 11 5 16 -9 14 -15 11 -15 -7z"/>
<path d="M9730 6665 c0 -6 41 -9 107 -7 170 4 179 8 30 13 -87 2 -137 0 -137
-6z"/>
<path d="M6050 6655 c0 -8 -6 -15 -14 -15 -8 0 -17 -6 -20 -12 -5 -10 -7 -10
-12 0 -8 17 -24 15 -24 -3 0 -8 -4 -15 -10 -15 -5 0 -10 -7 -10 -15 0 -8 4
-15 9 -15 5 0 11 -10 13 -22 2 -18 10 -11 43 38 48 71 50 74 36 74 -6 0 -11
-7 -11 -15z m-50 -60 c0 -8 -4 -15 -10 -15 -5 0 -10 7 -10 15 0 8 5 15 10 15
6 0 10 -7 10 -15z"/>
<path d="M1638 6654 c-5 -4 -8 -16 -8 -26 0 -10 -4 -18 -10 -18 -5 0 -10 -9
-10 -21 0 -11 -7 -27 -15 -36 -10 -9 -13 -23 -9 -35 4 -14 2 -18 -5 -14 -7 5
-14 -4 -17 -24 -4 -17 -11 -33 -15 -36 -5 -3 -9 -18 -9 -35 0 -16 -4 -29 -10
-29 -5 0 -10 -14 -10 -31 0 -17 4 -28 10 -24 6 3 10 17 10 31 0 13 5 24 10 24
6 0 10 16 10 36 0 21 4 33 10 29 6 -3 10 2 10 12 0 11 7 28 15 39 8 10 15 29
15 42 0 12 5 22 10 22 6 0 10 11 10 24 0 13 5 26 11 28 6 2 9 14 7 27 -1 12
-6 19 -10 15z"/>
<path d="M3010 6633 c0 -13 5 -23 10 -23 6 0 10 -7 10 -15 0 -8 5 -15 10 -15
6 0 10 -7 10 -15 0 -9 7 -18 15 -21 8 -4 15 -13 15 -21 0 -8 5 -11 10 -8 15 9
12 18 -15 47 -14 15 -25 31 -25 35 0 4 -9 19 -20 33 l-20 25 0 -22z"/>
<path d="M7226 6641 c-4 -7 -5 -15 -2 -18 9 -9 19 4 14 18 -4 11 -6 11 -12 0z"/>
<path d="M7200 6595 c0 -8 -4 -15 -10 -15 -5 0 -10 -8 -10 -17 0 -14 3 -14 20
5 22 23 26 42 10 42 -5 0 -10 -7 -10 -15z"/>
<path d="M4210 6585 c0 -8 5 -15 10 -15 6 0 10 -7 10 -15 0 -8 5 -15 10 -15 6
0 10 7 10 15 0 8 -4 15 -10 15 -5 0 -10 7 -10 15 0 8 -4 15 -10 15 -5 0 -10
-7 -10 -15z"/>
<path d="M9750 6590 c0 -5 5 -10 10 -10 6 0 10 5 10 10 0 6 -4 10 -10 10 -5 0
-10 -4 -10 -10z"/>
<path d="M8600 6566 c0 -14 5 -26 10 -26 6 0 10 -11 10 -25 0 -14 5 -25 10
-25 6 0 10 11 10 25 0 14 -4 25 -10 25 -5 0 -10 9 -10 19 0 11 -4 23 -10 26
-6 4 -10 -5 -10 -19z"/>
<path d="M9772 6545 c2 -14 6 -25 11 -25 4 0 54 0 112 0 l105 0 0 25 0 25
-116 0 -115 0 3 -25z"/>
<path d="M7147 6527 c-9 -14 -17 -29 -17 -32 0 -3 -11 -18 -25 -33 -14 -15
-25 -32 -25 -39 0 -7 -4 -13 -10 -13 -5 0 -10 -7 -10 -15 0 -8 -4 -15 -10 -15
-5 0 -10 -7 -10 -15 0 -8 5 -15 10 -15 6 0 10 7 10 15 0 8 5 15 10 15 6 0 10
5 10 11 0 6 7 17 15 26 8 8 13 19 10 24 -4 5 0 9 8 9 7 0 20 12 28 28 8 15 18
30 22 33 5 4 7 15 5 25 -3 15 -6 14 -21 -9z"/>
<path d="M5940 6505 c-15 -38 -20 -41 -39 -22 -10 9 -10 7 0 -11 12 -20 12
-24 -3 -33 -10 -6 -18 -17 -18 -24 0 -8 -4 -15 -10 -15 -5 0 -10 -7 -10 -15 0
-8 -4 -15 -10 -15 -5 0 -10 -10 -10 -22 l0 -23 20 25 c11 14 20 29 20 33 0 4
11 20 25 35 14 15 25 32 25 39 0 7 5 13 10 13 6 0 10 5 10 11 0 7 7 17 17 24
9 7 13 17 9 23 -12 20 -22 14 -36 -23z"/>
<path d="M4250 6523 c1 -14 40 -56 46 -50 10 10 -5 39 -16 32 -5 -3 -10 1 -10
9 0 9 -4 16 -10 16 -5 0 -10 -3 -10 -7z"/>
<path d="M3100 6498 c1 -18 25 -48 39 -48 6 0 11 -9 11 -20 0 -11 3 -20 8 -20
4 0 15 -18 25 -40 9 -22 21 -40 27 -40 5 0 10 -7 10 -15 0 -8 3 -15 8 -15 4 0
13 -13 20 -30 14 -30 47 -44 36 -15 -4 8 -10 15 -15 15 -5 0 -9 7 -9 15 0 8
-4 15 -10 15 -5 0 -10 6 -10 13 0 7 -10 23 -23 37 -12 14 -30 41 -39 60 -9 19
-26 45 -37 57 -12 12 -21 27 -21 33 0 5 -4 10 -10 10 -5 0 -10 -6 -10 -12z"/>
<path d="M9794 6478 c3 -13 6 -27 6 -33 0 -6 38 -9 100 -7 l100 3 0 30 0 29
-106 0 c-105 0 -106 0 -100 -22z"/>
<path d="M8640 6460 c0 -10 6 -23 14 -27 8 -4 16 -21 18 -38 4 -25 6 -27 12
-12 5 11 4 28 -2 40 -5 12 -13 30 -16 40 -7 23 -26 22 -26 -3z"/>
<path d="M4300 6445 c0 -8 5 -15 10 -15 6 0 10 -7 10 -15 0 -8 5 -15 10 -15
14 0 12 22 -4 43 -16 21 -26 22 -26 2z"/>
<path d="M4346 6391 c-4 -6 0 -14 8 -17 9 -3 16 -15 16 -25 0 -10 5 -19 10
-19 15 0 11 23 -9 49 -12 16 -20 20 -25 12z"/>
<path d="M9820 6374 c0 -20 4 -25 16 -20 9 3 49 6 90 6 67 0 74 2 74 20 0 19
-7 20 -90 20 l-90 0 0 -26z"/>
<path d="M8690 6335 c0 -19 5 -35 10 -35 6 0 10 16 10 35 0 19 -4 35 -10 35
-5 0 -10 -16 -10 -35z"/>
<path d="M5805 6340 c9 -31 21 -45 29 -32 3 5 -4 20 -15 33 l-21 24 7 -25z"/>
<path d="M240 6340 c0 -5 24 -10 54 -10 30 0 61 -3 70 -6 11 -4 16 -1 16 10 0
13 -12 16 -70 16 -40 0 -70 -4 -70 -10z"/>
<path d="M7016 6333 c-4 -13 -12 -23 -17 -23 -5 0 -9 -7 -9 -15 0 -8 -4 -15
-10 -15 -5 0 -10 -6 -10 -13 0 -7 -11 -24 -25 -39 -14 -15 -25 -34 -25 -43 0
-8 -4 -15 -10 -15 -5 0 -10 -5 -10 -10 0 -6 -11 -23 -25 -38 -14 -15 -25 -32
-25 -39 0 -7 -4 -13 -10 -13 -5 0 -10 -10 -10 -22 0 -12 -3 -18 -6 -15 -7 7
-44 -36 -44 -51 0 -5 -11 -20 -24 -33 -13 -13 -22 -29 -19 -36 7 -18 23 -16
23 2 0 8 5 15 10 15 6 0 10 7 10 15 0 8 5 15 10 15 6 0 10 11 10 25 0 14 5 24
10 23 6 -2 18 11 28 27 9 17 20 32 25 33 4 2 7 8 7 14 0 5 6 16 13 23 29 33
37 45 37 55 0 5 5 10 10 10 6 0 10 5 10 11 0 6 6 17 13 24 31 35 37 45 37 60
0 8 5 15 10 15 6 0 10 6 10 14 0 8 5 16 11 18 6 2 9 13 7 23 -4 19 -5 18 -12
-2z"/>
<path d="M4396 6321 c-4 -7 -5 -15 -2 -18 9 -9 19 4 14 18 -4 11 -6 11 -12 0z"/>
<path d="M1497 6313 c-4 -3 -7 -19 -7 -35 0 -15 -4 -28 -10 -28 -5 0 -10 -16
-10 -35 0 -19 -4 -35 -10 -35 -5 0 -10 -19 -10 -42 0 -32 3 -39 10 -28 5 8 10
27 10 42 0 15 5 30 10 33 6 3 10 19 10 36 0 16 4 29 9 29 11 0 20 45 11 60 -3
5 -9 7 -13 3z"/>
<path d="M8717 6304 c-10 -10 -9 -62 2 -68 5 -3 11 4 14 15 7 24 -5 63 -16 53z"/>
<path d="M9845 6301 c-3 -6 -2 -18 3 -27 6 -11 11 -13 16 -5 4 6 35 11 72 11
36 0 64 4 64 10 0 6 -26 10 -59 10 -33 0 -66 3 -74 6 -8 3 -18 1 -22 -5z"/>
<path d="M4416 6291 c-4 -5 1 -16 9 -24 8 -9 15 -20 15 -26 0 -6 4 -11 9 -11
5 0 12 -10 16 -22 6 -19 8 -20 12 -6 2 10 -5 27 -16 40 -12 12 -21 27 -21 34
0 17 -17 27 -24 15z"/>
<path d="M5790 6285 c0 -8 -4 -15 -10 -15 -5 0 -10 -7 -10 -15 0 -8 -9 -24
-20 -35 -17 -17 -21 -18 -26 -5 -3 8 -10 13 -15 10 -4 -3 -3 -18 4 -32 9 -21
9 -27 -1 -31 -14 -4 -16 -32 -2 -32 6 0 10 7 10 15 0 8 5 15 10 15 6 0 10 6
10 13 0 7 10 24 23 38 41 46 59 89 37 89 -5 0 -10 -7 -10 -15z"/>
<path d="M8740 6200 c0 -25 4 -39 10 -35 6 3 10 19 10 35 0 16 -4 32 -10 35
-6 4 -10 -10 -10 -35z"/>
<path d="M9865 6208 c4 -18 8 -33 9 -33 0 -1 29 1 64 3 61 4 62 4 62 33 l0 29
-71 0 -71 0 7 -32z"/>
<path d="M3290 6218 c0 -10 5 -18 10 -18 6 0 10 -7 10 -15 0 -8 5 -15 10 -15
15 0 12 12 -10 40 -16 20 -20 22 -20 8z"/>
<path d="M4487 6185 c-4 -8 -2 -17 3 -20 6 -4 10 3 10 14 0 25 -6 27 -13 6z"/>
<path d="M280 6159 c-42 -6 -43 -6 -9 -7 19 -1 40 -7 46 -13 7 -7 12 -6 16 5
8 21 0 23 -53 15z"/>
<path d="M3335 6157 c-4 -10 -5 -21 -1 -24 10 -10 18 4 13 24 -4 17 -4 17 -12
0z"/>
<path d="M4510 6150 c0 -14 21 -50 48 -79 12 -14 22 -29 22 -33 0 -5 5 -8 10
-8 6 0 10 7 10 15 0 8 -4 15 -10 15 -5 0 -10 7 -10 15 0 8 -7 15 -15 15 -8 0
-15 9 -15 20 0 11 -4 20 -10 20 -5 0 -10 7 -10 15 0 8 -4 15 -10 15 -5 0 -10
-5 -10 -10z"/>
<path d="M8760 6125 c0 -19 5 -35 10 -35 6 0 10 16 10 35 0 19 -4 35 -10 35
-5 0 -10 -16 -10 -35z"/>
<path d="M3360 6118 c0 -10 5 -18 10 -18 6 0 10 -9 10 -20 0 -11 5 -20 10 -20
6 0 10 -7 10 -15 0 -8 6 -15 14 -15 9 0 12 -7 9 -20 -4 -14 0 -20 11 -20 9 0
16 -7 16 -15 0 -8 5 -15 10 -15 6 0 10 -9 10 -20 0 -11 5 -20 10 -20 6 0 10 9
10 20 0 11 -4 20 -10 20 -5 0 -10 7 -10 15 0 8 -4 15 -10 15 -5 0 -10 6 -10
14 0 7 -11 25 -25 40 -14 15 -25 30 -25 34 0 4 -9 18 -20 32 -16 20 -20 22
-20 8z"/>
<path d="M5680 6118 c0 -10 -10 -28 -21 -39 -17 -17 -23 -19 -30 -8 -4 7 -12
10 -16 5 -4 -5 -2 -11 5 -13 6 -3 12 -11 12 -19 0 -8 5 -14 10 -14 6 0 10 7
10 15 0 8 3 15 8 15 16 1 40 47 31 61 -7 11 -9 11 -9 -3z"/>
<path d="M1428 6097 c-5 -10 -8 -29 -8 -42 0 -13 -4 -27 -10 -30 -5 -3 -10
-26 -10 -51 0 -24 -4 -44 -10 -44 -5 0 -10 -25 -10 -56 0 -32 -4 -53 -9 -49
-6 3 -12 -16 -16 -42 -3 -27 -8 -59 -11 -73 -17 -74 -47 -457 -48 -600 -1
-189 47 -686 68 -707 3 -4 6 0 7 8 0 8 2 25 5 38 2 13 -2 51 -11 83 -8 33 -15
84 -15 113 0 30 -5 66 -10 81 -15 38 -15 763 -1 777 6 6 11 48 11 94 0 46 4
83 9 83 4 0 11 27 14 60 4 34 11 69 17 80 5 10 10 37 10 59 0 22 5 43 10 46 6
3 10 26 10 50 0 24 5 45 11 47 6 2 9 23 7 48 -2 32 -5 40 -10 27z"/>
<path d="M9890 6080 c0 -15 8 -16 53 -12 51 4 64 8 56 16 -2 2 -28 6 -56 8
-45 4 -53 3 -53 -12z"/>
<path d="M8787 6084 c-10 -10 -9 -72 2 -78 5 -3 11 4 13 17 5 28 -5 71 -15 61z"/>
<path d="M4600 6014 c0 -3 9 -17 20 -31 15 -19 20 -21 20 -9 0 9 -4 16 -10 16
-5 0 -10 7 -10 15 0 8 -4 15 -10 15 -5 0 -10 -3 -10 -6z"/>
<path d="M5610 6004 c0 -8 5 -12 10 -9 6 3 10 10 10 16 0 5 -4 9 -10 9 -5 0
-10 -7 -10 -16z"/>
<path d="M8807 5993 c-7 -15 5 -93 14 -87 12 7 12 81 0 89 -5 3 -11 2 -14 -2z"/>
<path d="M5570 5955 c-8 -19 -19 -35 -26 -35 -7 0 -10 -8 -7 -20 4 -14 0 -20
-11 -20 -9 0 -16 -7 -16 -15 0 -8 -4 -15 -10 -15 -5 0 -10 -9 -10 -21 0 -11
-4 -18 -9 -14 -5 3 -11 -5 -13 -17 -3 -20 -4 -21 -20 -5 -16 17 -18 16 -28 -4
-7 -11 -9 -23 -6 -27 3 -3 6 0 6 6 0 7 5 12 10 12 6 0 10 -7 10 -15 0 -8 -4
-15 -10 -15 -5 0 -10 -7 -10 -15 0 -8 -4 -15 -10 -15 -5 0 -10 -6 -10 -14 0
-8 -7 -16 -15 -20 -8 -3 -15 -12 -15 -21 0 -8 -4 -15 -10 -15 -5 0 -10 8 -10
18 0 14 -4 12 -20 -8 -12 -16 -15 -29 -9 -34 12 -13 12 -46 -1 -46 -5 0 -10
-8 -10 -17 0 -17 95 106 122 157 7 14 23 36 35 49 11 13 27 35 35 50 7 14 23
37 36 51 12 14 22 29 22 35 0 5 9 21 20 35 20 26 26 50 12 50 -5 0 -14 -16
-22 -35z m-220 -320 c0 -8 -4 -15 -10 -15 -5 0 -10 7 -10 15 0 8 5 15 10 15 6
0 10 -7 10 -15z"/>
<path d="M9910 5973 c0 -14 20 -39 20 -25 0 7 14 12 35 12 19 0 35 5 35 10 0
6 -20 10 -45 10 -25 0 -45 -3 -45 -7z"/>
<path d="M4650 5935 c0 -8 5 -15 10 -15 6 0 10 -7 10 -15 0 -8 5 -15 10 -15 6
0 10 7 10 15 0 8 -4 15 -10 15 -5 0 -10 7 -10 15 0 8 -4 15 -10 15 -5 0 -10
-7 -10 -15z"/>
<path d="M3497 5913 c-12 -11 -8 -23 8 -23 8 0 15 -9 15 -21 0 -11 5 -17 10
-14 6 3 10 -3 10 -14 0 -12 7 -21 16 -21 8 0 12 -4 9 -10 -3 -5 -3 -15 1 -21
4 -8 9 -7 14 2 5 8 -1 25 -16 44 -13 18 -24 35 -24 39 0 13 -37 46 -43 39z"/>
<path d="M6707 5879 c-10 -11 -16 -28 -14 -37 3 -15 5 -14 12 3 5 11 13 23 18
26 5 4 8 12 6 18 -3 7 -11 3 -22 -10z"/>
<path d="M8830 5860 c0 -22 5 -40 10 -40 6 0 10 18 10 40 0 22 -4 40 -10 40
-5 0 -10 -18 -10 -40z"/>
<path d="M4696 5882 c-7 -12 22 -61 37 -62 4 0 7 -7 7 -15 0 -8 5 -15 10 -15
6 0 10 7 10 15 0 8 -4 15 -10 15 -5 0 -10 7 -10 15 0 8 -5 15 -10 15 -6 0 -14
10 -19 22 -5 14 -10 17 -15 10z"/>
<path d="M6658 5805 c-20 -27 -22 -35 -8 -35 6 0 10 7 10 15 0 8 7 15 15 15
16 0 21 15 8 23 -5 3 -16 -6 -25 -18z"/>
<path d="M8857 5793 c-10 -9 -7 -64 3 -88 6 -14 9 -4 9 38 1 58 0 62 -12 50z"/>
<path d="M3590 5773 c0 -13 5 -23 10 -23 6 0 10 -7 10 -15 0 -8 5 -15 10 -15
6 0 10 -7 10 -15 0 -9 7 -18 15 -21 8 -4 15 -12 15 -20 0 -8 5 -14 10 -14 6 0
10 -9 10 -20 0 -11 5 -20 10 -20 6 0 10 -7 10 -15 0 -18 16 -20 26 -3 4 6 0
16 -9 23 -10 7 -17 17 -17 24 0 6 -4 11 -10 11 -5 0 -10 7 -10 15 0 8 -4 15
-10 15 -5 0 -10 7 -10 15 0 9 -7 18 -15 21 -8 4 -15 11 -15 18 0 6 -9 22 -20
36 l-20 25 0 -22z"/>
<path d="M4766 5782 c-2 -4 -1 -14 5 -22 7 -12 9 -10 9 8 0 23 -5 28 -14 14z"/>
<path d="M6620 5745 c0 -8 -5 -15 -10 -15 -6 0 -18 -16 -27 -35 -9 -19 -20
-35 -25 -35 -4 0 -8 -7 -8 -15 0 -8 5 -15 10 -15 6 0 10 7 10 15 0 8 5 15 10
15 6 0 10 6 10 14 0 8 7 16 15 20 8 3 15 12 15 21 0 8 5 15 10 15 6 0 10 7 10
15 0 8 -4 15 -10 15 -5 0 -10 -7 -10 -15z"/>
<path d="M4790 5738 c0 -10 5 -18 10 -18 6 0 10 -9 10 -20 0 -11 5 -20 10 -20
16 0 11 23 -10 50 -16 20 -20 22 -20 8z"/>
<path d="M4836 5671 c-4 -7 -5 -15 -2 -18 9 -9 19 4 14 18 -4 11 -6 11 -12 0z"/>
<path d="M9960 5655 c0 -29 6 -31 26 -11 20 20 17 36 -6 36 -15 0 -20 -7 -20
-25z"/>
<path d="M8881 5595 c0 -53 3 -73 9 -60 5 11 9 38 9 60 0 22 -4 49 -9 60 -6
13 -9 -7 -9 -60z"/>
<path d="M4856 5641 c-4 -5 1 -16 9 -24 8 -9 15 -20 15 -26 0 -6 5 -11 10 -11
6 0 10 -7 10 -15 0 -9 7 -18 15 -21 8 -4 13 -10 10 -14 -3 -5 -1 -11 4 -14 16
-11 22 11 6 24 -8 7 -15 19 -15 26 0 8 -4 14 -10 14 -5 0 -10 7 -10 15 0 8 -4
15 -10 15 -5 0 -10 6 -10 14 0 18 -17 30 -24 17z"/>
<path d="M6493 5560 c-23 -33 -39 -61 -34 -64 10 -7 41 30 41 49 0 8 5 15 10
15 6 0 10 7 10 15 0 8 7 15 15 15 8 0 15 7 15 15 0 27 -14 16 -57 -45z"/>
<path d="M3730 5563 c0 -13 5 -23 10 -23 6 0 10 -7 10 -15 0 -8 5 -15 10 -15
6 0 10 -7 10 -15 0 -9 7 -18 15 -21 8 -4 15 -13 15 -22 0 -12 3 -13 11 -5 8 8
6 18 -6 37 -10 14 -21 26 -26 26 -5 0 -9 6 -9 13 0 6 -9 23 -20 37 l-20 25 0
-22z"/>
<path d="M5286 5541 c-4 -7 -5 -15 -2 -18 9 -9 19 4 14 18 -4 11 -6 11 -12 0z"/>
<path d="M4950 5495 c0 -8 4 -15 9 -15 5 0 11 -10 14 -22 4 -12 9 -19 13 -16
7 8 -18 68 -28 68 -5 0 -8 -7 -8 -15z"/>
<path d="M5260 5495 c0 -8 -4 -15 -10 -15 -5 0 -10 -7 -10 -16 0 -12 5 -10 20
9 22 28 25 37 10 37 -5 0 -10 -7 -10 -15z"/>
<path d="M8901 5385 c0 -71 4 -150 8 -175 6 -32 9 1 10 115 0 88 -4 167 -9
175 -7 10 -10 -28 -9 -115z"/>
<path d="M6436 5473 c-4 -13 -12 -23 -17 -23 -5 0 -9 -7 -9 -15 0 -8 -4 -15
-10 -15 -5 0 -10 -6 -10 -14 0 -8 -7 -16 -15 -20 -21 -8 -19 -23 4 -35 16 -9
18 -8 14 9 -3 11 0 20 6 20 6 0 11 7 11 15 0 8 5 15 10 15 6 0 10 9 10 19 0
11 5 21 11 23 6 2 9 13 7 23 -4 19 -5 18 -12 -2z"/>
<path d="M5221 5434 c0 -11 3 -14 6 -6 3 7 2 16 -1 19 -3 4 -6 -2 -5 -13z"/>
<path d="M3820 5425 c0 -8 5 -15 10 -15 6 0 10 -7 10 -15 0 -8 5 -15 10 -15 6
0 10 7 10 15 0 8 -4 15 -10 15 -5 0 -10 7 -10 15 0 8 -4 15 -10 15 -5 0 -10
-7 -10 -15z"/>
<path d="M5001 5424 c0 -11 3 -14 6 -6 3 7 2 16 -1 19 -3 4 -6 -2 -5 -13z"/>
<path d="M5190 5395 c0 -8 5 -15 10 -15 6 0 10 7 10 15 0 8 -4 15 -10 15 -5 0
-10 -7 -10 -15z"/>
<path d="M3870 5357 c0 -9 5 -17 10 -17 6 0 10 -7 10 -15 0 -8 5 -15 10 -15 6
0 10 -9 10 -20 0 -11 7 -20 15 -20 8 0 15 -7 15 -15 0 -8 5 -15 10 -15 6 0 10
-9 10 -20 0 -11 5 -20 10 -20 6 0 10 -7 10 -15 0 -8 7 -15 15 -15 8 0 15 -9
15 -20 0 -11 5 -20 10 -20 6 0 10 -7 10 -15 0 -8 5 -15 10 -15 6 0 10 -7 10
-16 0 -9 11 -27 25 -40 14 -13 25 -30 25 -39 0 -8 5 -15 10 -15 6 0 10 -5 10
-11 0 -6 6 -17 13 -24 33 -38 38 -47 33 -60 -3 -9 0 -12 10 -8 8 3 14 -1 14
-8 1 -22 36 -63 44 -51 3 6 1 17 -6 24 -7 8 -19 24 -25 36 -7 12 -19 32 -25
44 -7 12 -23 33 -35 47 -13 14 -23 29 -23 34 0 4 -11 20 -25 35 -14 15 -25 32
-25 39 0 7 -4 13 -10 13 -5 0 -10 7 -10 15 0 8 -4 15 -10 15 -5 0 -10 6 -10
14 0 7 -11 25 -25 40 -14 15 -25 30 -25 33 0 3 -11 21 -25 39 -14 18 -25 37
-25 43 0 6 -4 11 -10 11 -5 0 -10 5 -10 10 0 6 -9 20 -20 32 -17 19 -20 19
-20 5z"/>
<path d="M5170 5354 c0 -8 5 -12 10 -9 6 3 10 10 10 16 0 5 -4 9 -10 9 -5 0
-10 -7 -10 -16z"/>
<path d="M6340 5338 c0 -6 -7 -20 -17 -30 -15 -17 -15 -18 0 -18 10 0 17 7 17
15 0 8 5 15 10 15 6 0 10 7 10 15 0 8 -4 15 -10 15 -5 0 -10 -5 -10 -12z"/>
<path d="M5151 5324 c0 -11 3 -14 6 -6 3 7 2 16 -1 19 -3 4 -6 -2 -5 -13z"/>
<path d="M6301 5264 c0 -11 3 -14 6 -6 3 7 2 16 -1 19 -3 4 -6 -2 -5 -13z"/>
<path d="M6276 5241 c-4 -7 -5 -15 -2 -18 9 -9 19 4 14 18 -4 11 -6 11 -12 0z"/>
<path d="M6250 5201 c0 -6 -11 -22 -25 -37 -14 -15 -25 -31 -25 -36 0 -5 -11
-21 -24 -35 -13 -14 -22 -32 -19 -39 6 -17 23 -8 23 12 0 8 5 14 10 14 6 0 10
6 10 14 0 8 4 16 8 18 13 5 62 74 62 86 0 7 -4 12 -10 12 -5 0 -10 -4 -10 -9z"/>
<path d="M6130 5025 c0 -8 -4 -15 -10 -15 -5 0 -10 -7 -10 -15 0 -8 5 -15 10
-15 6 0 10 7 10 15 0 8 5 15 10 15 6 0 10 7 10 15 0 8 -4 15 -10 15 -5 0 -10
-7 -10 -15z"/>
<path d="M8908 4997 c-5 -10 -8 -77 -8 -148 0 -84 -4 -128 -10 -124 -6 4 -10
-30 -9 -97 1 -111 16 -103 18 10 1 35 6 72 11 83 6 11 9 76 8 156 -2 76 -6
130 -10 120z"/>
<path d="M6085 4961 c-3 -12 -11 -21 -16 -21 -5 0 -9 -7 -9 -15 0 -8 -4 -15
-10 -15 -5 0 -10 -9 -10 -20 0 -11 -4 -20 -10 -20 -5 0 -10 -7 -10 -15 0 -8 5
-15 10 -15 6 0 10 7 10 15 0 8 5 15 10 15 6 0 10 9 10 20 0 11 5 20 10 20 6 0
10 5 10 11 0 7 8 18 18 25 13 9 14 16 5 24 -8 9 -13 7 -18 -9z"/>
<path d="M5995 4823 c-4 -13 -11 -23 -16 -23 -5 0 -9 -7 -9 -15 0 -8 -4 -15
-10 -15 -5 0 -10 -10 -9 -22 l0 -23 11 23 c6 12 15 22 20 22 4 0 8 6 8 14 0 8
5 16 11 18 6 2 9 13 6 23 -5 19 -5 19 -12 -2z"/>
<path d="M4240 4799 c0 -11 5 -17 10 -14 6 3 10 13 10 21 0 8 -4 14 -10 14 -5
0 -10 -9 -10 -21z"/>
<path d="M4260 4778 c1 -18 25 -48 39 -48 16 0 14 20 -4 26 -8 4 -15 12 -15
20 0 8 -4 14 -10 14 -5 0 -10 -6 -10 -12z"/>
<path d="M5920 4720 c0 -5 5 -10 10 -10 6 0 10 5 10 10 0 6 -4 10 -10 10 -5 0
-10 -4 -10 -10z"/>
<path d="M4310 4707 c0 -9 5 -17 10 -17 6 0 10 -9 10 -20 0 -11 5 -20 10 -20
6 0 10 -5 10 -10 0 -6 11 -21 25 -34 14 -13 25 -31 25 -40 0 -9 5 -16 10 -16
6 0 10 -7 10 -15 0 -8 7 -15 15 -15 18 0 20 16 2 27 -6 4 -18 20 -25 34 -8 15
-25 38 -38 52 -13 14 -24 31 -24 37 0 6 -9 20 -20 32 -17 19 -20 19 -20 5z"/>
<path d="M5900 4685 c0 -8 5 -15 10 -15 6 0 10 7 10 15 0 8 -4 15 -10 15 -5 0
-10 -7 -10 -15z"/>
<path d="M5875 4651 c-6 -11 9 -23 19 -14 9 9 7 23 -3 23 -6 0 -12 -4 -16 -9z"/>
<path d="M5861 4614 c0 -11 3 -14 6 -6 3 7 2 16 -1 19 -3 4 -6 -2 -5 -13z"/>
<path d="M5827 4580 c-19 -22 -23 -50 -7 -50 6 0 10 9 10 19 0 11 5 21 12 23
6 2 9 10 7 16 -3 8 -10 6 -22 -8z"/>
<path d="M9960 4550 c0 -5 5 -10 10 -10 6 0 10 5 10 10 0 6 -4 10 -10 10 -5 0
-10 -4 -10 -10z"/>
<path d="M5776 4505 c-19 -28 -20 -35 -6 -35 6 0 10 5 10 11 0 7 7 17 17 24
10 7 12 14 6 18 -6 4 -18 -4 -27 -18z"/>
<path d="M8846 4473 c-3 -32 -8 -84 -12 -117 -4 -41 -3 -56 5 -52 6 4 11 27
11 52 0 24 5 44 10 44 6 0 10 28 10 65 0 80 -16 85 -24 8z"/>
<path d="M4445 4501 c-3 -6 1 -14 9 -17 9 -3 16 -12 16 -20 0 -8 5 -14 10 -14
16 0 12 19 -9 41 -12 13 -21 17 -26 10z"/>
<path d="M5740 4446 c0 -9 5 -16 10 -16 6 0 10 4 10 9 0 6 -4 13 -10 16 -5 3
-10 -1 -10 -9z"/>
<path d="M4490 4430 c0 -10 8 -22 38 -55 6 -7 12 -18 12 -24 0 -6 5 -11 10
-11 6 0 10 -7 10 -15 0 -8 4 -15 9 -15 21 0 19 18 -5 43 -13 14 -24 30 -24 34
-1 10 -36 53 -44 53 -3 0 -6 -5 -6 -10z"/>
<path d="M5722 4410 c0 -14 2 -19 5 -12 2 6 2 18 0 25 -3 6 -5 1 -5 -13z"/>
<path d="M1380 4356 c0 -30 5 -58 10 -61 6 -3 10 -24 10 -45 0 -21 5 -42 10
-45 6 -3 10 -18 10 -33 0 -15 5 -34 10 -42 7 -11 10 -2 10 33 0 30 -4 46 -10
42 -6 -4 -10 13 -10 44 0 28 -4 51 -10 51 -5 0 -10 22 -10 49 0 28 -4 53 -10
56 -6 4 -10 -15 -10 -49z"/>
<path d="M9940 4390 c0 -5 5 -10 11 -10 5 0 7 5 4 10 -3 6 -8 10 -11 10 -2 0
-4 -4 -4 -10z"/>
<path d="M5696 4381 c-4 -7 -5 -15 -2 -18 9 -9 19 4 14 18 -4 11 -6 11 -12 0z"/>
<path d="M5670 4339 c0 -7 -8 -17 -17 -24 -15 -11 -15 -13 5 -24 18 -9 21 -9
16 3 -3 8 -1 17 5 21 14 8 14 35 1 35 -5 0 -10 -5 -10 -11z"/>
<path d="M4587 4304 c-3 -5 -2 -70 2 -144 l6 -135 5 130 c5 120 1 170 -13 149z"/>
<path d="M8810 4261 c0 -16 -7 -34 -15 -41 -17 -14 -21 -85 -5 -95 6 -4 10 11
10 38 0 31 5 47 15 51 17 6 21 76 5 76 -5 0 -10 -13 -10 -29z"/>
<path d="M5631 4275 c-1 -5 -4 -363 -5 -794 -1 -618 -4 -785 -13 -788 -7 -3
-13 -16 -13 -29 0 -13 -4 -24 -10 -24 -5 0 -10 -10 -9 -22 l0 -23 11 23 c6 12
15 22 20 22 4 0 8 8 8 18 0 10 5 23 10 28 7 7 9 282 7 805 -1 437 -4 790 -6
784z"/>
<path d="M9920 4250 c0 -5 5 -10 11 -10 5 0 7 5 4 10 -3 6 -8 10 -11 10 -2 0
-4 -4 -4 -10z"/>
<path d="M9890 4130 c0 -5 5 -10 10 -10 6 0 10 5 10 10 0 6 -4 10 -10 10 -5 0
-10 -4 -10 -10z"/>
<path d="M1450 4093 c0 -24 5 -43 10 -43 6 0 10 -15 10 -34 0 -19 5 -38 10
-41 6 -3 10 -15 10 -26 0 -19 2 -26 33 -87 9 -19 17 -40 17 -48 0 -8 4 -22 9
-32 31 -61 61 -129 61 -140 0 -6 5 -12 10 -12 6 0 10 -6 10 -13 0 -7 9 -31 20
-53 18 -37 19 -38 20 -11 0 15 -4 27 -10 27 -5 0 -10 11 -10 25 0 14 -4 25
-10 25 -5 0 -10 11 -10 25 0 14 -4 25 -10 25 -5 0 -10 11 -10 24 0 14 -4 28
-10 31 -5 3 -10 15 -10 26 0 11 -7 22 -15 25 -9 4 -15 19 -15 40 0 19 -4 34
-10 34 -5 0 -10 14 -10 30 0 17 -4 30 -10 30 -5 0 -10 11 -10 25 0 14 -7 28
-15 31 -9 4 -15 19 -15 40 0 19 -4 34 -10 34 -5 0 -10 12 -10 28 0 15 -5 34
-10 42 -7 11 -10 4 -10 -27z"/>
<path d="M8760 4079 c0 -24 -4 -38 -10 -34 -6 4 -10 -8 -10 -30 0 -22 4 -34
10 -30 6 3 10 17 10 30 0 13 5 27 10 30 6 3 10 22 10 41 0 19 -4 34 -10 34 -5
0 -10 -18 -10 -41z"/>
<path d="M9870 4020 c0 -12 12 -14 65 -12 36 2 65 7 65 12 0 5 -29 10 -65 12
-53 2 -65 0 -65 -12z"/>
<path d="M4592 3995 c0 -16 2 -22 5 -12 2 9 2 23 0 30 -3 6 -5 -1 -5 -18z"/>
<path d="M8714 3955 c-4 -15 -2 -31 3 -36 7 -7 12 0 15 21 6 38 -9 51 -18 15z"/>
<path d="M9847 3936 c-9 -22 -1 -23 83 -16 l75 7 -65 1 c-37 1 -71 7 -77 13
-7 7 -12 6 -16 -5z"/>
<path d="M8690 3880 c0 -16 -4 -30 -10 -30 -5 0 -10 -11 -10 -25 0 -16 -6 -25
-15 -25 -10 0 -15 -10 -15 -30 0 -16 -4 -30 -10 -30 -5 0 -10 -11 -10 -25 0
-14 -4 -25 -10 -25 -5 0 -10 -14 -10 -32 0 -31 0 -31 -21 -12 l-21 19 7 -38
c5 -25 4 -37 -4 -37 -6 0 -11 -11 -11 -25 0 -14 -4 -25 -10 -25 -5 0 -10 -11
-10 -25 0 -16 -6 -25 -15 -25 -8 0 -15 -9 -15 -20 0 -22 -15 -27 -24 -7 -3 6
-3 -3 0 -20 3 -21 1 -33 -5 -33 -6 0 -11 -11 -11 -24 0 -13 -5 -26 -11 -28 -6
-2 -9 -13 -7 -23 3 -16 8 -12 23 20 10 22 21 42 24 45 9 8 30 43 37 60 3 8 10
23 15 32 5 10 9 25 9 33 0 8 5 15 10 15 6 0 10 9 10 19 0 11 4 23 10 26 5 3
17 23 26 43 8 20 20 45 25 54 5 10 9 26 9 37 0 10 7 21 15 25 8 3 15 14 15 25
0 11 5 23 10 26 6 3 10 17 10 31 0 13 5 24 10 24 6 0 10 14 10 30 0 17 -4 30
-10 30 -5 0 -10 -13 -10 -30z"/>
<path d="M9820 3841 c0 -20 5 -21 90 -21 73 0 90 3 90 15 0 12 -15 15 -74 15
-41 0 -81 3 -90 6 -12 4 -16 0 -16 -15z"/>
<path d="M4615 3375 c0 -225 1 -319 2 -208 2 111 2 295 0 410 -1 114 -2 24 -2
-202z"/>
<path d="M9800 3768 c0 -10 18 -12 83 -10 119 4 135 9 35 11 -47 0 -93 4 -102
7 -10 4 -16 1 -16 -8z"/>
<path d="M9780 3694 c0 -8 5 -12 10 -9 6 4 8 11 5 16 -9 14 -15 11 -15 -7z"/>
<path d="M9753 3627 c-8 -12 -7 -12 127 -7 l125 6 -123 4 c-68 3 -126 1 -129
-3z"/>
<path d="M9730 3559 c0 -11 22 -13 107 -11 163 4 183 9 46 10 -67 1 -128 5
-137 8 -10 4 -16 1 -16 -7z"/>
<path d="M1681 3518 c0 -13 14 -45 30 -73 16 -27 32 -58 35 -67 4 -10 10 -18
15 -18 5 0 9 -9 9 -20 0 -11 4 -20 9 -20 5 0 11 -8 15 -17 6 -19 27 -55 37
-63 3 -3 12 -20 20 -37 16 -37 29 -43 29 -12 0 11 -4 17 -10 14 -5 -3 -10 3
-10 14 0 12 -4 21 -10 21 -5 0 -10 9 -10 19 0 10 -7 21 -15 25 -8 3 -15 12
-15 21 0 8 -4 15 -10 15 -5 0 -10 9 -10 20 0 11 -4 20 -10 20 -5 0 -10 9 -10
20 0 11 -4 20 -10 20 -5 0 -10 9 -10 20 0 11 -7 20 -15 20 -9 0 -15 9 -15 25
0 14 -4 25 -10 25 -5 0 -10 9 -10 19 0 11 -4 23 -10 26 -6 3 -10 -4 -9 -17z"/>
<path d="M9660 3370 c0 -5 5 -10 10 -10 6 0 10 5 10 10 0 6 -4 10 -10 10 -5 0
-10 -4 -10 -10z"/>
<path d="M8398 3344 c-3 -3 1 -20 10 -37 12 -24 17 -28 20 -15 4 19 -21 62
-30 52z"/>
<path d="M8374 3299 c-4 -7 -2 -15 4 -17 15 -5 16 -32 2 -32 -5 0 -10 5 -10
10 0 6 -4 10 -10 10 -5 0 -7 -13 -3 -30 5 -30 -10 -43 -21 -17 -3 6 -3 0 0
-15 6 -28 -10 -40 -19 -15 -2 6 -7 9 -11 5 -4 -3 -1 -16 6 -28 10 -18 10 -24
1 -27 -7 -3 -13 -11 -13 -19 0 -8 -11 -25 -25 -38 -14 -13 -25 -28 -25 -35 0
-6 -4 -11 -10 -11 -5 0 -10 5 -10 10 0 6 -4 10 -9 10 -5 0 -4 -11 2 -25 12
-25 27 -33 27 -15 0 6 11 23 25 38 14 15 31 39 38 55 6 15 15 27 19 27 5 0 8
7 8 15 0 8 5 15 10 15 6 0 10 5 10 11 0 6 11 25 25 43 29 38 30 44 11 69 -11
14 -16 15 -22 6z"/>
<path d="M597 3264 c-3 -3 -3 -12 0 -20 4 -11 -28 -14 -179 -17 l-183 -2 188
-3 187 -2 0 25 c0 26 -2 29 -13 19z"/>
<path d="M9610 3250 c0 -19 7 -20 195 -20 188 0 195 1 195 20 0 19 -7 20 -195
20 -188 0 -195 -1 -195 -20z"/>
<path d="M9590 3204 c0 -8 5 -12 10 -9 6 3 10 10 10 16 0 5 -4 9 -10 9 -5 0
-10 -7 -10 -16z"/>
<path d="M9571 3164 c0 -11 3 -14 6 -6 3 7 2 16 -1 19 -3 4 -6 -2 -5 -13z"/>
<path d="M1890 3153 c0 -13 5 -23 10 -23 6 0 10 -5 10 -10 0 -6 9 -21 21 -33
12 -12 25 -31 29 -42 7 -18 9 -18 15 -3 5 12 -2 25 -19 41 -14 13 -26 28 -26
33 0 5 -9 20 -20 34 l-20 25 0 -22z"/>
<path d="M8197 3034 c-4 -4 -4 -18 0 -32 5 -20 3 -24 -9 -20 -11 5 -14 0 -10
-18 5 -28 22 -32 22 -5 0 10 7 22 16 25 16 6 16 8 0 25 -9 9 -13 21 -9 24 3 4
4 7 1 7 -2 0 -8 -3 -11 -6z"/>
<path d="M1980 3023 c0 -5 9 -19 20 -33 16 -20 20 -22 20 -7 0 9 -4 17 -10 17
-5 0 -10 7 -10 15 0 8 -4 15 -10 15 -5 0 -10 -3 -10 -7z"/>
<path d="M2030 2958 c0 -10 5 -18 10 -18 6 0 10 -5 10 -11 0 -6 6 -16 13 -23
25 -27 57 -66 57 -71 0 -5 33 -43 98 -112 17 -19 32 -29 32 -23 0 7 -20 31
-45 56 -25 24 -45 48 -45 54 0 5 -4 10 -10 10 -5 0 -10 5 -10 11 0 7 -11 22
-25 35 -14 13 -25 25 -25 28 0 3 -7 14 -15 23 -8 10 -21 27 -29 38 -14 18 -15
18 -16 3z"/>
<path d="M4610 2822 c0 -80 4 -132 10 -132 9 0 3 248 -6 259 -2 2 -4 -55 -4
-127z"/>
<path d="M8160 2927 c0 -20 -26 -23 -34 -4 -3 6 -3 2 0 -10 5 -23 -11 -33 -18
-11 -3 9 -6 9 -12 0 -4 -7 -2 -12 3 -12 6 0 11 -7 11 -15 0 -18 -16 -20 -23
-2 -3 6 -3 -3 0 -20 4 -26 2 -33 -11 -33 -9 0 -16 -4 -16 -9 0 -4 -23 -32 -51
-62 -40 -42 -52 -50 -59 -39 -8 13 -12 12 -24 -5 -8 -11 -10 -21 -5 -23 5 -2
9 -13 9 -24 0 -16 15 -5 65 48 36 38 65 75 65 82 0 6 7 12 15 12 8 0 15 3 15
8 0 6 11 20 71 91 15 17 18 26 10 34 -8 8 -11 6 -11 -6z m-210 -237 c0 -5 -4
-10 -10 -10 -5 0 -10 5 -10 10 0 6 5 10 10 10 6 0 10 -4 10 -10z"/>
<path d="M9430 2876 c0 -16 -5 -25 -12 -23 -8 1 -13 -9 -13 -25 0 -16 3 -28 8
-28 4 0 138 0 297 0 l290 0 0 25 0 25 -277 2 c-254 3 -278 4 -275 20 1 9 -2
19 -8 23 -6 4 -10 -4 -10 -19z"/>
<path d="M8025 2810 c-3 -5 -1 -10 4 -10 6 0 11 5 11 10 0 6 -2 10 -4 10 -3 0
-8 -4 -11 -10z"/>
<path d="M538 2802 l-298 -2 0 -25 0 -25 305 0 305 0 0 24 c0 14 -3 26 -7 28
-5 2 -142 2 -305 0z"/>
<path d="M2260 2670 c0 -5 5 -10 10 -10 6 0 10 5 10 10 0 6 -4 10 -10 10 -5 0
-10 -4 -10 -10z"/>
<path d="M4630 2660 c0 -11 5 -20 10 -20 6 0 10 9 10 20 0 11 -4 20 -10 20 -5
0 -10 -9 -10 -20z"/>
<path d="M4662 2620 c0 -14 2 -19 5 -12 2 6 2 18 0 25 -3 6 -5 1 -5 -13z"/>
<path d="M2305 2620 c3 -5 8 -10 11 -10 2 0 4 5 4 10 0 6 -5 10 -11 10 -5 0
-7 -4 -4 -10z"/>
<path d="M7891 2614 c-18 -21 -6 -30 14 -11 8 9 15 18 15 21 0 11 -15 5 -29
-10z"/>
<path d="M950 2618 c-1 -5 -3 -14 -4 -20 -1 -10 -80 -14 -353 -16 l-353 -2 0
-85 0 -85 404 0 404 0 4 30 c3 22 -2 38 -19 56 -13 14 -23 31 -23 39 0 7 -11
22 -24 32 -13 11 -26 28 -29 39 -2 10 -6 16 -7 12z"/>
<path d="M9260 2603 c-11 -13 -12 -24 -5 -40 l10 -23 367 0 368 0 0 40 0 40
-363 0 c-333 0 -364 -1 -377 -17z"/>
<path d="M2330 2600 c0 -5 5 -10 11 -10 5 0 7 5 4 10 -3 6 -8 10 -11 10 -2 0
-4 -4 -4 -10z"/>
<path d="M4680 2590 c0 -5 5 -10 10 -10 6 0 10 -7 10 -15 0 -8 5 -15 11 -15 7
0 22 -12 35 -27 19 -22 26 -25 36 -15 9 9 9 12 -4 12 -9 0 -32 18 -52 40 -37
41 -46 47 -46 30z"/>
<path d="M5522 2564 c-24 -24 -29 -34 -18 -34 9 0 16 5 16 10 0 6 7 10 15 10
8 0 15 7 15 15 0 8 5 15 10 15 6 0 10 5 10 10 0 16 -13 9 -48 -26z"/>
<path d="M7856 2581 c-4 -5 -2 -12 3 -15 5 -4 12 -2 15 3 4 5 2 12 -3 15 -5 4
-12 2 -15 -3z"/>
<path d="M2365 2560 c10 -11 20 -18 23 -16 5 6 -23 36 -34 36 -4 0 1 -9 11
-20z"/>
<path d="M7820 2540 c-8 -11 -20 -20 -26 -20 -13 0 -54 -47 -54 -61 0 -5 9 -4
20 3 11 7 20 18 20 25 0 7 5 13 10 13 11 0 60 45 60 55 0 12 -16 4 -30 -15z"/>
<path d="M2400 2530 c0 -5 5 -10 11 -10 5 0 7 5 4 10 -3 6 -8 10 -11 10 -2 0
-4 -4 -4 -10z"/>
<path d="M7750 2520 c0 -5 5 -10 10 -10 6 0 10 5 10 10 0 6 -4 10 -10 10 -5 0
-10 -4 -10 -10z"/>
<path d="M5460 2510 c0 -13 11 -13 30 0 12 8 11 10 -7 10 -13 0 -23 -4 -23
-10z"/>
<path d="M4790 2490 c0 -5 9 -10 19 -10 11 0 21 -4 23 -9 2 -5 129 -11 282
-12 217 -3 280 -1 283 9 3 6 16 12 29 12 13 0 24 5 24 10 0 6 -11 10 -25 10
-14 0 -25 -4 -25 -10 0 -6 -100 -10 -279 -10 -176 0 -282 4 -286 10 -3 6 -15
10 -26 10 -10 0 -19 -4 -19 -10z"/>
<path d="M2445 2480 c3 -5 8 -10 11 -10 2 0 4 5 4 10 0 6 -5 10 -11 10 -5 0
-7 -4 -4 -10z"/>
<path d="M7705 2480 c-3 -5 -1 -10 4 -10 6 0 11 5 11 10 0 6 -2 10 -4 10 -3 0
-8 -4 -11 -10z"/>
<path d="M9165 2463 c-5 -10 -9 -25 -9 -33 -1 -8 -6 -14 -13 -13 -16 3 -36
-34 -37 -67 -1 -16 -8 -26 -21 -28 -39 -8 -53 -30 -47 -77 l5 -45 -38 0 c-49
0 -68 -22 -49 -59 18 -33 -2 -55 -48 -55 -25 0 -40 -9 -61 -33 -16 -18 -24
-33 -18 -33 6 0 11 5 11 11 0 5 3 8 8 6 4 -3 6 -37 4 -75 -4 -80 -4 -80 -110
-84 -42 -2 -57 -8 -76 -28 -13 -14 -26 -34 -28 -45 -2 -11 -12 -21 -23 -23
-11 -2 -41 -25 -67 -50 l-48 -46 0 -653 0 -653 750 0 750 0 0 865 0 865 -512
3 -513 2 513 3 512 2 0 30 0 30 -475 0 c-310 0 -475 3 -475 10 0 7 165 10 475
10 l475 0 0 140 0 140 -414 0 c-385 0 -414 -1 -421 -17z"/>
<path d="M7715 2440 c-3 -5 -1 -10 4 -10 6 0 11 5 11 10 0 6 -2 10 -4 10 -3 0
-8 -4 -11 -10z"/>
<path d="M7660 2425 c10 -12 9 -18 -4 -31 -9 -9 -23 -13 -31 -10 -13 5 -14 2
-4 -16 11 -20 9 -21 -22 -15 -19 3 -28 3 -21 0 6 -2 9 -9 6 -14 -4 -6 -11 -6
-19 1 -9 8 -15 8 -20 0 -3 -5 -1 -10 4 -10 6 0 11 -4 11 -10 0 -14 -28 -12
-32 2 -3 9 -6 9 -12 0 -4 -7 -2 -12 3 -12 15 0 14 -19 -3 -36 -15 -14 -36 -19
-36 -8 0 4 8 13 18 20 11 9 13 13 4 14 -20 0 -50 -32 -34 -38 23 -7 12 -24
-13 -20 -13 3 -22 1 -19 -3 8 -14 -33 -48 -44 -37 -6 6 -12 6 -16 -1 -4 -6 -2
-11 3 -11 6 0 11 -5 11 -11 0 -7 -10 -9 -24 -7 -16 3 -23 1 -19 -8 6 -17 -18
-29 -28 -13 -4 7 -10 11 -14 8 -3 -3 3 -13 14 -23 17 -15 20 -15 34 -1 9 8 18
15 21 15 6 0 44 31 72 58 7 6 17 12 23 12 6 0 11 5 11 10 0 6 5 10 11 10 6 0
16 6 23 13 7 6 30 26 51 42 76 58 141 125 123 125 -10 0 -18 5 -18 10 0 6 -5
10 -11 10 -8 0 -8 -4 1 -15z"/>
<path d="M1055 2400 c-3 -5 1 -10 9 -10 9 0 16 -9 16 -20 0 -20 -7 -20 -422
-22 -233 -1 -371 -4 -308 -5 63 -2 258 -4 433 -5 l317 -3 0 38 c0 30 -4 37
-19 37 -11 0 -23 -4 -26 -10z"/>
<path d="M2545 2390 c3 -5 10 -10 16 -10 5 0 9 5 9 10 0 6 -7 10 -16 10 -8 0
-12 -4 -9 -10z"/>
<path d="M2605 2340 c3 -5 8 -10 11 -10 2 0 4 5 4 10 0 6 -5 10 -11 10 -5 0
-7 -4 -4 -10z"/>
<path d="M2630 2320 c0 -5 5 -10 10 -10 6 0 10 5 10 10 0 6 -4 10 -10 10 -5 0
-10 -4 -10 -10z"/>
<path d="M1140 2306 c0 -2 7 -6 15 -10 8 -3 15 -1 15 4 0 6 -7 10 -15 10 -8 0
-15 -2 -15 -4z"/>
<path d="M240 1320 l0 -940 660 0 660 0 0 721 c0 396 2 724 5 729 3 6 -11 28
-31 50 -34 36 -42 40 -86 40 -74 0 -88 11 -88 70 0 29 5 50 12 52 21 7 -58 81
-99 93 -34 10 -38 14 -38 45 0 19 -5 44 -12 55 -11 19 -24 20 -497 23 l-486 3
0 -941z"/>
<path d="M2720 2250 c0 -5 5 -10 10 -10 6 0 10 5 10 10 0 6 -4 10 -10 10 -5 0
-10 -4 -10 -10z"/>
<path d="M2778 2203 c7 -3 16 -2 19 1 4 3 -2 6 -13 5 -11 0 -14 -3 -6 -6z"/>
<path d="M2805 2180 c3 -5 10 -10 16 -10 5 0 9 5 9 10 0 6 -7 10 -16 10 -8 0
-12 -4 -9 -10z"/>
<path d="M2840 2160 c0 -5 5 -10 11 -10 5 0 7 5 4 10 -3 6 -8 10 -11 10 -2 0
-4 -4 -4 -10z"/>
<path d="M2878 2133 c7 -3 16 -2 19 1 4 3 -2 6 -13 5 -11 0 -14 -3 -6 -6z"/>
<path d="M7281 2135 c-1 -13 19 -35 31 -35 4 0 8 5 8 10 0 6 -6 10 -14 10 -8
0 -17 6 -19 13 -3 6 -6 7 -6 2z"/>
<path d="M2905 2110 c4 -6 11 -8 16 -5 14 9 11 15 -7 15 -8 0 -12 -5 -9 -10z"/>
<path d="M7252 2097 c18 -19 38 -22 38 -7 0 6 -4 10 -9 10 -5 0 -18 3 -28 7
-17 6 -17 6 -1 -10z"/>
<path d="M2940 2090 c0 -5 7 -10 15 -10 8 0 15 5 15 10 0 6 -7 10 -15 10 -8 0
-15 -4 -15 -10z"/>
<path d="M2978 2063 c7 -3 16 -2 19 1 4 3 -2 6 -13 5 -11 0 -14 -3 -6 -6z"/>
<path d="M7228 2063 c7 -3 16 -2 19 1 4 3 -2 6 -13 5 -11 0 -14 -3 -6 -6z"/>
<path d="M7184 2042 c11 -12 19 -13 27 -5 7 7 3 12 -16 15 -25 5 -25 4 -11
-10z"/>
<path d="M3008 2043 c7 -3 16 -2 19 1 4 3 -2 6 -13 5 -11 0 -14 -3 -6 -6z"/>
<path d="M3045 2020 c-3 -5 1 -10 9 -10 9 0 16 5 16 10 0 6 -4 10 -9 10 -6 0
-13 -4 -16 -10z"/>
<path d="M7140 2019 c0 -7 -10 -9 -26 -5 -24 6 -25 5 -11 -9 18 -17 37 -20 37
-5 0 6 9 10 20 10 11 0 20 5 20 10 0 6 -9 10 -20 10 -11 0 -20 -5 -20 -11z"/>
<path d="M3085 2000 c-3 -5 1 -10 10 -10 9 0 13 5 10 10 -3 6 -8 10 -10 10 -2
0 -7 -4 -10 -10z"/>
<path d="M7060 1980 c11 -20 31 -26 43 -13 4 3 -5 12 -19 20 -34 17 -37 17
-24 -7z"/>
<path d="M3125 1970 c4 -6 11 -8 16 -5 14 9 11 15 -7 15 -8 0 -12 -5 -9 -10z"/>
<path d="M7019 1957 c15 -19 41 -23 41 -7 0 6 -4 10 -9 10 -5 0 -18 3 -28 7
-16 6 -16 5 -4 -10z"/>
<path d="M3160 1950 c0 -5 7 -10 15 -10 8 0 15 5 15 10 0 6 -7 10 -15 10 -8 0
-15 -4 -15 -10z"/>
<path d="M6970 1935 c13 -16 50 -21 50 -6 0 5 -10 11 -22 15 -36 9 -41 7 -28
-9z"/>
<path d="M3208 1923 c7 -3 16 -2 19 1 4 3 -2 6 -13 5 -11 0 -14 -3 -6 -6z"/>
<path d="M6930 1926 c0 -12 33 -35 41 -30 6 3 2 12 -8 20 -18 13 -33 18 -33
10z"/>
<path d="M3240 1906 c0 -9 30 -14 35 -6 4 6 -3 10 -14 10 -12 0 -21 -2 -21 -4z"/>
<path d="M3290 1880 c0 -5 7 -10 15 -10 8 0 15 5 15 10 0 6 -7 10 -15 10 -8 0
-15 -4 -15 -10z"/>
<path d="M6890 1880 c0 -5 -9 -10 -20 -10 -11 0 -20 -4 -20 -10 0 -5 9 -10 19
-10 11 0 23 5 26 10 3 6 15 10 26 10 10 0 19 5 19 10 0 6 -11 10 -25 10 -14 0
-25 -4 -25 -10z"/>
<path d="M3338 1853 c7 -3 16 -2 19 1 4 3 -2 6 -13 5 -11 0 -14 -3 -6 -6z"/>
<path d="M6811 1840 c-19 -11 5 -23 25 -12 14 8 14 10 2 15 -8 3 -21 2 -27 -3z"/>
<path d="M3378 1833 c6 -2 18 -2 25 0 6 3 1 5 -13 5 -14 0 -19 -2 -12 -5z"/>
<path d="M1570 1105 l0 -725 115 0 115 0 0 619 0 620 -32 3 c-29 3 -33 7 -36
34 -2 24 -21 49 -76 103 -41 39 -76 71 -79 71 -4 0 -7 -326 -7 -725z"/>
<path d="M6749 1817 c15 -18 51 -23 51 -7 0 6 -6 10 -14 10 -8 0 -23 3 -33 7
-16 6 -16 5 -4 -10z"/>
<path d="M3420 1810 c0 -5 9 -10 20 -10 11 0 20 5 20 10 0 6 -9 10 -20 10 -11
0 -20 -4 -20 -10z"/>
<path d="M6700 1790 c0 -5 -11 -10 -25 -10 -14 0 -25 -4 -25 -10 0 -5 11 -10
24 -10 14 0 28 5 31 10 3 6 15 10 26 10 10 0 19 5 19 10 0 6 -11 10 -25 10
-14 0 -25 -4 -25 -10z"/>
<path d="M3478 1783 c6 -2 18 -2 25 0 6 3 1 5 -13 5 -14 0 -19 -2 -12 -5z"/>
<path d="M3538 1763 c6 -2 18 -2 25 0 6 3 1 5 -13 5 -14 0 -19 -2 -12 -5z"/>
<path d="M6591 1743 c-6 -12 -17 -14 -41 -10 -28 6 -31 5 -20 -8 14 -17 60
-21 60 -5 0 6 11 10 25 10 30 0 33 16 5 23 -12 3 -23 -1 -29 -10z"/>
<path d="M3580 1740 c0 -5 9 -10 20 -10 11 0 20 5 20 10 0 6 -9 10 -20 10 -11
0 -20 -4 -20 -10z"/>
<path d="M3640 1720 c0 -5 12 -10 26 -10 14 0 23 4 19 10 -3 6 -15 10 -26 10
-10 0 -19 -4 -19 -10z"/>
<path d="M6476 1695 c-8 -8 -29 -15 -46 -15 -18 0 -29 -4 -25 -10 4 -6 -10
-10 -34 -10 -23 0 -41 -4 -41 -10 0 -5 -18 -10 -40 -10 -22 0 -40 -4 -40 -10
0 -16 72 -16 78 1 2 5 19 9 37 9 19 0 37 5 40 10 3 6 17 10 30 10 13 0 26 4
30 9 3 5 19 12 35 16 17 4 28 11 24 16 -8 14 -31 11 -48 -6z"/>
<path d="M3708 1693 c6 -2 18 -2 25 0 6 3 1 5 -13 5 -14 0 -19 -2 -12 -5z"/>
<path d="M3755 1670 c3 -5 15 -10 25 -10 10 0 22 5 25 10 4 6 -7 10 -25 10
-18 0 -29 -4 -25 -10z"/>
<path d="M3820 1650 c0 -5 14 -10 31 -10 17 0 28 4 24 10 -3 6 -17 10 -31 10
-13 0 -24 -4 -24 -10z"/>
<path d="M3900 1630 c-11 -7 -5 -10 23 -10 23 0 36 4 32 10 -8 13 -35 13 -55
0z"/>
<path d="M3965 1600 c3 -5 19 -10 36 -10 16 0 29 5 29 10 0 6 -16 10 -36 10
-21 0 -33 -4 -29 -10z"/>
<path d="M6050 1602 c0 -18 36 -32 79 -32 51 0 53 15 4 24 -21 3 -48 9 -60 12
-14 4 -23 2 -23 -4z"/>
<path d="M6175 1600 c3 -5 19 -10 35 -10 16 0 32 5 35 10 4 6 -10 10 -35 10
-25 0 -39 -4 -35 -10z"/>
<path d="M4040 1580 c0 -5 18 -10 40 -10 22 0 40 5 40 10 0 6 -18 10 -40 10
-22 0 -40 -4 -40 -10z"/>
<path d="M4140 1560 c-11 -7 -1 -10 35 -10 36 0 46 3 35 10 -8 5 -24 10 -35
10 -11 0 -27 -5 -35 -10z"/>
<path d="M5985 1560 c-4 -6 13 -10 44 -10 28 0 51 5 51 10 0 6 -20 10 -44 10
-25 0 -48 -4 -51 -10z"/>
<path d="M5880 1551 c8 -6 11 -11 5 -11 -5 0 -3 -5 5 -10 19 -12 70 -13 89 -1
16 10 1 16 -69 26 -33 4 -41 3 -30 -4z"/>
<path d="M4240 1530 c20 -13 77 -13 85 0 4 6 -14 10 -47 10 -38 0 -49 -3 -38
-10z"/>
<path d="M1897 1524 c-4 -4 -4 -10 -1 -15 2 -4 4 -260 4 -569 l0 -560 30 0 30
0 2 548 c3 477 1 551 -12 563 -29 28 -47 39 -53 33z"/>
<path d="M8307 1516 c-16 -12 -17 -52 -17 -575 0 -489 2 -561 15 -561 13 0 15
74 17 573 2 314 3 573 3 574 0 1 -8 -4 -18 -11z"/>
<path d="M4350 1510 c0 -5 20 -10 45 -10 25 0 45 5 45 10 0 6 -20 10 -45 10
-25 0 -45 -4 -45 -10z"/>
<path d="M5765 1510 c3 -5 28 -10 56 -10 27 0 49 5 49 10 0 6 -25 10 -56 10
-34 0 -53 -4 -49 -10z"/>
<path d="M5580 1495 c0 -12 16 -15 82 -15 99 0 93 15 -9 24 -61 5 -73 3 -73
-9z"/>
<path d="M4475 1490 c-4 -6 21 -10 67 -10 51 0 68 3 58 10 -20 13 -117 13
-125 0z"/>
<path d="M4650 1460 c14 -4 57 -8 95 -8 39 0 81 4 95 8 15 5 -21 8 -95 8 -74
0 -110 -3 -95 -8z"/>
<path d="M5403 1458 c37 -7 77 -7 115 0 53 9 50 9 -58 9 -108 0 -111 0 -57 -9z"/>
<path d="M4915 1440 c11 -5 92 -9 180 -9 88 0 169 4 180 9 12 5 -60 9 -180 9
-120 0 -192 -4 -180 -9z"/>
<path d="M2028 904 c1 -335 6 -524 12 -524 6 0 10 179 10 499 0 275 2 505 5
513 3 7 -3 18 -12 24 -17 11 -18 -15 -15 -512z"/>
<path d="M8183 1415 c-10 -11 -13 -130 -13 -525 0 -447 2 -510 15 -510 13 0
15 63 15 509 0 280 3 516 6 525 8 20 -7 20 -23 1z"/>
<path d="M2130 860 c0 -313 3 -480 10 -480 7 0 10 167 10 480 0 313 -3 480
-10 480 -7 0 -10 -167 -10 -480z"/>
<path d="M8080 860 c0 -313 3 -480 10 -480 7 0 10 167 10 480 0 313 -3 480
-10 480 -7 0 -10 -167 -10 -480z"/>
<path d="M2220 825 c0 -290 3 -445 10 -445 7 0 10 155 10 445 0 290 -3 445
-10 445 -7 0 -10 -155 -10 -445z"/>
<path d="M7990 823 c5 -467 8 -435 12 120 2 213 0 327 -7 327 -7 0 -8 -153 -5
-447z"/>
<path d="M2290 806 c0 -277 3 -426 10 -426 14 0 14 837 0 845 -7 4 -10 -138
-10 -419z"/>
<path d="M7918 948 c1 -150 3 -340 5 -423 1 -82 4 40 5 273 1 232 -1 422 -5
422 -5 0 -7 -123 -5 -272z"/>
<path d="M2360 780 c0 -260 4 -400 10 -400 7 0 10 140 10 400 0 260 -3 400
-10 400 -6 0 -10 -140 -10 -400z"/>
<path d="M7850 780 c0 -222 2 -401 5 -399 6 7 7 790 0 797 -3 3 -5 -176 -5
-398z"/>
<path d="M2430 755 c0 -243 4 -375 10 -375 6 0 10 132 10 375 0 243 -4 375
-10 375 -6 0 -10 -132 -10 -375z"/>
<path d="M7785 755 c0 -209 1 -296 2 -193 2 103 2 274 0 380 -1 106 -2 22 -2
-187z"/>
<path d="M2552 718 c1 -189 3 -302 5 -253 7 221 7 595 1 595 -5 0 -7 -154 -6
-342z"/>
<path d="M2664 974 c3 -9 7 -147 8 -307 2 -312 6 -275 10 96 3 186 1 227 -11
227 -8 0 -11 -6 -7 -16z"/>
<path d="M7540 685 c0 -197 4 -305 10 -305 6 0 10 108 10 305 0 197 -4 305
-10 305 -6 0 -10 -108 -10 -305z"/>
<path d="M2724 675 c0 -165 2 -234 3 -153 2 81 2 216 0 300 -1 84 -3 18 -3
-147z"/>
<path d="M7260 839 c0 -5 5 -7 10 -4 6 3 10 8 10 11 0 2 -4 4 -10 4 -5 0 -10
-5 -10 -11z"/>
<path d="M7168 803 c-2 -5 -1 -102 2 -218 l5 -210 5 213 c4 185 1 245 -12 215z"/>
<path d="M3090 580 c0 -127 4 -200 10 -200 6 0 10 73 10 200 0 127 -4 200 -10
200 -6 0 -10 -73 -10 -200z"/>
<path d="M7050 750 c0 -5 5 -10 10 -10 6 0 10 5 10 10 0 6 -4 10 -10 10 -5 0
-10 -4 -10 -10z"/>
<path d="M6935 700 c3 -5 8 -10 11 -10 2 0 4 5 4 10 0 6 -5 10 -11 10 -5 0 -7
-4 -4 -10z"/>
<path d="M6678 523 c4 -152 8 -159 13 -25 2 77 0 122 -6 122 -6 0 -9 -37 -7
-97z"/>
<path d="M3605 590 c-3 -5 -1 -10 4 -10 6 0 11 5 11 10 0 6 -2 10 -4 10 -3 0
-8 -4 -11 -10z"/>
<path d="M3676 573 c-10 -10 -7 -193 3 -193 11 0 20 190 10 196 -3 2 -9 1 -13
-3z"/>
<path d="M6517 573 c-11 -11 -8 -193 3 -193 6 0 10 40 10 100 0 100 -1 106
-13 93z"/>
<path d="M3768 488 c5 -107 9 -117 11 -25 0 48 -2 87 -6 87 -5 0 -7 -28 -5
-62z"/>
<path d="M6344 514 c3 -9 6 -42 6 -75 0 -33 4 -59 10 -59 6 0 10 32 10 75 0
62 -3 75 -16 75 -11 0 -14 -5 -10 -16z"/>
<path d="M6238 453 c5 -76 10 -83 11 -15 0 34 -2 62 -7 62 -4 0 -6 -21 -4 -47z"/>
<path d="M4045 470 c3 -5 8 -10 11 -10 2 0 4 5 4 10 0 6 -5 10 -11 10 -5 0 -7
-4 -4 -10z"/>
<path d="M6138 430 c5 -65 22 -65 22 0 0 33 -4 50 -12 50 -9 0 -12 -15 -10
-50z"/>
<path d="M5870 430 c-10 -6 -11 -10 -2 -10 6 0 12 -9 12 -20 0 -11 5 -20 10
-20 6 0 10 9 10 20 0 11 0 23 1 27 1 12 -15 13 -31 3z"/>
</g>
</svg>
